<svg width="50" height="50" viewBox="0 0 50 50" fill="none" xmlns="http://www.w3.org/2000/svg">
<g clip-path="url(#clip0)">
<path d="M50.0003 25.8065C50.0003 19.1363 45.297 13.7097 39.5164 13.7097C39.2067 13.7097 38.9019 13.7331 38.5986 13.7637C38.6648 13.2113 38.7099 12.6548 38.7099 12.0968C38.7099 5.42661 34.0067 0 28.2261 0C22.4454 0 17.7422 5.42661 17.7422 12.0968C17.7422 17.9202 21.3269 22.7927 26.0833 23.9379L25.3438 25.0476C25.1188 25.3847 25.0003 25.7766 25.0003 26.1815C25.0003 27.3081 25.918 28.2258 27.0446 28.2258H28.2261V50H29.839V30.4516C31.1543 34.0855 33.9615 36.8258 37.3736 37.6476L36.6341 38.7573C36.4091 39.0944 36.2906 39.4863 36.2906 39.8911C36.2906 41.0177 37.2083 41.9355 38.3349 41.9355H38.7099V50H40.3228V41.9355H40.6978C41.8244 41.9355 42.7422 41.0177 42.7422 39.8911C42.7422 39.4863 42.6236 39.0944 42.3986 38.7573L41.6591 37.6476C46.4156 36.5024 50.0003 31.6298 50.0003 25.8065ZM29.068 26.6129H27.0446C26.8067 26.6129 26.6132 26.4194 26.6132 26.1815C26.6132 26.096 26.6382 26.0129 26.6857 25.9419L27.6438 24.5056C27.7728 24.3105 27.9914 24.1935 28.2261 24.1935C28.5317 24.1935 28.8382 24.1766 29.143 24.146C29.0777 24.6903 29.0325 25.2419 29.0325 25.8065C29.0325 26.079 29.0527 26.3452 29.068 26.6129ZM29.4462 22.475C29.0422 22.5403 28.6341 22.5806 28.2261 22.5806C23.3349 22.5806 19.3551 17.8774 19.3551 12.0968C19.3551 6.31613 23.3349 1.6129 28.2261 1.6129C33.1172 1.6129 37.097 6.31613 37.097 12.0968C37.097 12.7702 37.0333 13.4411 36.9253 14.0992C33.3253 15.1613 30.4688 18.3685 29.4462 22.475ZM40.6978 40.3226H38.3349C38.097 40.3226 37.9035 40.129 37.9035 39.8911C37.9035 39.8056 37.9285 39.7226 37.9761 39.6516L38.9341 38.2153C39.0632 38.0202 39.2817 37.9032 39.5164 37.9032C39.7511 37.9032 39.9696 38.0202 40.0994 38.2153L41.0575 39.6516C41.1051 39.7226 41.1301 39.8048 41.1301 39.8911C41.1293 40.129 40.9357 40.3226 40.6978 40.3226ZM39.5164 36.2903C34.6253 36.2903 30.6454 31.5871 30.6454 25.8065C30.6454 20.0258 34.6253 15.3226 39.5164 15.3226C44.4075 15.3226 48.3873 20.0258 48.3873 25.8065C48.3873 31.5871 44.4075 36.2903 39.5164 36.2903Z" fill="white"/>
<path d="M32.8301 22.3501L34.3551 22.8775C35.2648 20.2476 37.2906 18.5484 39.5164 18.5484V16.9355C36.593 16.9355 33.968 19.0614 32.8301 22.3501Z" fill="white"/>
<path d="M32.2578 25.8073H33.8707C33.8707 25.3105 33.9102 24.8145 33.9885 24.3323L32.3957 24.0742C32.3046 24.6412 32.2578 25.2242 32.2578 25.8073Z" fill="white"/>
<path d="M20.9678 12.0966H22.5807C22.5807 11.5918 22.6218 11.0902 22.7008 10.6047L21.1097 10.3418C21.0162 10.9136 20.9678 11.5047 20.9678 12.0966Z" fill="white"/>
<path d="M21.5605 8.57962L23.0807 9.11672C24.0001 6.51752 26.0194 4.83849 28.2259 4.83849V3.22559C25.3267 3.22559 22.7097 5.32639 21.5605 8.57962Z" fill="white"/>
<path d="M8.87072 29.8389H7.25781V31.4518H8.87072V29.8389Z" fill="white"/>
<path d="M15.3229 29.8389H13.71V31.4518H15.3229V29.8389Z" fill="white"/>
<path d="M15.2381 35.0381L13.801 34.3066C13.7744 34.355 13.1446 35.4841 11.2905 35.4841C9.43649 35.4841 8.80665 34.355 8.78085 34.3066L7.34375 35.0381C7.38488 35.1228 8.40585 37.097 11.2905 37.097C14.1752 37.097 15.1962 35.1228 15.2381 35.0381Z" fill="white"/>
<path d="M16.229 39.7873L14.7298 39.4543C16.5637 38.4632 17.9218 36.7051 18.3782 34.6132C19.8532 34.3172 20.9677 33.0132 20.9677 31.4519C20.9677 30.6172 20.6411 29.8632 20.1194 29.2898C20.2653 28.8994 21.8823 24.3785 19.5935 21.0454C18.0887 18.8535 15.2944 17.7422 11.2903 17.7422C7.28629 17.7422 4.49194 18.8535 2.9871 21.0462C0.697581 24.3793 2.31532 28.9003 2.46129 29.2906C1.93952 29.8632 1.6129 30.6172 1.6129 31.4519C1.6129 33.0132 2.72742 34.3172 4.20242 34.6132C4.65887 36.7051 6.01694 38.4632 7.85161 39.4543L6.35161 39.7873C4.52903 40.193 3.02742 41.4696 2.35242 43.1607L0 48.2083V50.0003H22.5806V48.2083L20.246 43.2019C19.5532 41.4696 18.0516 40.193 16.229 39.7873ZM18.5484 32.8406V30.064C19.0282 30.3438 19.3548 30.8583 19.3548 31.4527C19.3548 32.047 19.0282 32.5607 18.5484 32.8406ZM4.03226 32.8398C3.55242 32.5607 3.22581 32.0462 3.22581 31.4519C3.22581 30.8575 3.55242 30.343 4.03226 30.0632V32.8398ZM4.03226 27.4196V28.3406C3.975 28.3551 3.91935 28.3753 3.8629 28.393C3.54597 27.3551 2.77339 24.1978 4.32016 21.9535C5.50806 20.2293 7.85323 19.3551 11.2903 19.3551C14.7274 19.3551 17.0726 20.2293 18.2605 21.9535C19.8073 24.1978 19.0355 27.3559 18.7177 28.393C18.6613 28.3753 18.6065 28.3551 18.5484 28.3406V26.6132C18.5484 25.2188 17.5371 22.5809 13.7097 22.5809C11.4258 22.5809 10.5661 23.8994 9.80645 25.0623C8.98145 26.3277 8.26774 27.4196 5.64516 27.4196H4.03226ZM5.64516 33.0648V29.0325C9.14113 29.0325 10.2597 27.3196 11.1573 25.9438C11.8452 24.8898 12.2992 24.1938 13.7097 24.1938C16.8016 24.1938 16.9306 26.372 16.9355 26.6132V33.0648C16.9355 36.1769 14.4024 38.7099 11.2903 38.7099C8.17823 38.7099 5.64516 36.1769 5.64516 33.0648ZM12.9032 40.1357V40.7253C12.6177 40.8962 12.0831 41.1293 11.2903 41.1293C10.4952 41.1293 9.95968 40.8946 9.67742 40.7269V40.1357C10.1968 40.2543 10.7355 40.3228 11.2903 40.3228C11.8452 40.3228 12.3839 40.2543 12.9032 40.1357ZM16.9355 48.3873V44.3551H15.3226V48.3873H7.25806V44.3551H5.64516V48.3873H1.69677L3.83226 43.8003C4.32661 42.5632 5.39919 41.6511 6.70161 41.3624L8.06452 41.0599V41.4632L8.30081 41.6994C8.40726 41.8067 9.39758 42.7422 11.2903 42.7422C13.1831 42.7422 14.1734 41.8067 14.2798 41.6994L14.5161 41.4632V41.0591L15.879 41.3624C17.1806 41.6511 18.2532 42.5632 18.7661 43.8422L20.8839 48.3873H16.9355Z" fill="white"/>
</g>
<defs>
<clipPath id="clip0">
<rect width="50" height="50" fill="white"/>
</clipPath>
</defs>
</svg>
