<svg width="25" height="33" viewBox="0 0 25 33" fill="none" xmlns="http://www.w3.org/2000/svg">
<path d="M24.1255 33H0.500484C0.363484 33 0.232484 32.944 0.138484 32.845C0.044484 32.746 -0.005516 32.613 0.000484004 32.476L1.12548 8.851C1.13848 8.584 1.35748 8.375 1.62548 8.375H23.0005C23.2675 8.375 23.4875 8.584 23.5005 8.851L24.6255 32.476C24.6315 32.613 24.5825 32.746 24.4875 32.845C24.3925 32.944 24.2615 33 24.1255 33ZM1.02448 32H23.6005L22.5235 9.375H2.10148L1.02448 32Z" fill="black"/>
<path d="M17.7172 11.375C17.4412 11.375 17.2172 11.151 17.2172 10.875V5.905C17.2172 3.201 15.0172 1 12.3122 1C9.60723 1 7.40723 3.201 7.40723 5.905V10.875C7.40723 11.151 7.18323 11.375 6.90723 11.375C6.63123 11.375 6.40723 11.151 6.40723 10.875V5.905C6.40723 2.649 9.05623 0 12.3122 0C15.5682 0 18.2172 2.649 18.2172 5.905V10.875C18.2172 11.151 17.9942 11.375 17.7172 11.375Z" fill="black"/>
</svg>
