<svg width="20" height="20" viewBox="0 0 20 20" fill="none" xmlns="http://www.w3.org/2000/svg">
<rect width="20" height="20" rx="4" fill="#F34970"/>
<g transform="translate(4,4)" >
    <g clip-path="url(#clip0)">
        <path d="M11.1955 2.98823C10.6589 2.06902 9.93115 1.34122 9.01191 0.804692C8.09251 0.268194 7.08885 0 6.00018 0C4.91161 0 3.90766 0.268194 2.98842 0.804692C2.06913 1.34114 1.34133 2.06893 0.804774 2.98823C0.268194 3.90757 0 4.91153 0 6.00001C0 7.08855 0.268276 8.09234 0.804692 9.01175C1.34122 9.93096 2.06902 10.6588 2.98831 11.1953C3.90766 11.7318 4.91153 12 6.00007 12C7.08861 12 8.09259 11.7318 9.01188 11.1953C9.93112 10.6589 10.6589 9.93096 11.1954 9.01175C11.7318 8.09243 12 7.0885 12 6.00001C12 4.91142 11.7318 3.90744 11.1955 2.98823ZM9.67978 8.13279C9.29959 8.7838 8.784 9.29959 8.13298 9.67978C7.48196 10.06 6.77105 10.2499 6.0001 10.2499C5.22934 10.2499 4.51836 10.06 3.86727 9.67978C3.21625 9.29956 2.70066 8.7838 2.32046 8.13279C1.94019 7.48177 1.75012 6.77083 1.75012 6.00001C1.75012 5.22914 1.94027 4.5182 2.32046 3.86718C2.70058 3.21617 3.21631 2.70047 3.86727 2.3203C4.51828 1.94008 5.22923 1.75003 6.0001 1.75003C6.77102 1.75003 7.48196 1.94008 8.13298 2.3203C8.784 2.70049 9.29961 3.21617 9.67978 3.86718C10.06 4.5182 10.25 5.22914 10.25 6.00001C10.25 6.77083 10.06 7.48177 9.67978 8.13279Z" fill="white"/>
        <path d="M6.75097 3H6.25092C6.17789 3 6.11813 3.02351 6.07114 3.07033C6.02446 3.1172 6.00095 3.17704 6.00095 3.24997V6.00004H4.25095C4.17797 6.00004 4.11815 6.02343 4.07125 6.0702C4.0244 6.11704 4.00098 6.17694 4.00098 6.25001V6.74997C4.00098 6.82292 4.0244 6.88285 4.07125 6.92967C4.11818 6.97649 4.1781 6.99988 4.25095 6.99988H6.75111C6.82395 6.99988 6.88391 6.97649 6.93064 6.92967C6.97746 6.88285 7.00105 6.82292 7.00105 6.74997V3.24997C7.00105 3.1771 6.97746 3.11728 6.93064 3.07033C6.88385 3.02351 6.82392 3 6.75097 3Z" fill="white"/>
    </g>
    <defs>
        <clipPath id="clip0">
            <rect width="12" height="12" fill="white"/>
        </clipPath>
    </defs>11 1.17185C8.04693 0.390536 7.10414 0 5.99998 0C4.89577 0 3.95309 0.390618 3.17185 1.17185C2.39065 1.95306 2 2.89577 2 3.99998C2 4.56775 2.08592 5.03384 2.25774 5.39843L5.10932 11.4454C5.18747 11.6172 5.30861 11.7526 5.47265 11.8515C5.63673 11.9504 5.81248 12 6.00004 12C6.18753 12 6.36337 11.9504 6.52742 11.8515C6.69149 11.7526 6.81509 11.6172 6.89844 11.4454L9.74203 5.39843C9.91393 5.03384 9.99991 4.56773 9.99991 3.99998C10 2.89577 9.60948 1.95317 8.82811 1.17185ZM7.41398 5.41406C7.02341 5.80459 6.5521 5.99995 5.99998 5.99995C5.44786 5.99995 4.97655 5.80459 4.58588 5.41406C4.19526 5.02339 3.99991 4.55207 3.99991 3.99995C3.99991 3.44789 4.19526 2.97649 4.58588 2.58593C4.97655 2.19531 5.44794 1.99996 5.99998 1.99996C6.5521 1.99996 7.02341 2.19531 7.41398 2.58593C7.80457 2.97647 7.99992 3.44789 7.99992 3.99995C7.99992 4.55202 7.80459 5.0233 7.41398 5.41406Z" fill="white"/>
</g>
</svg>

