<svg width="24" height="24" viewBox="0 0 24 24" fill="none" xmlns="http://www.w3.org/2000/svg">
<path d="M22.0054 3.45395H17.012V2.6398C17.012 1.18421 15.8278 0 14.3722 0H9.62551C8.16992 0 6.98571 1.18421 6.98571 2.6398V3.45395H1.99229C1.62222 3.45395 1.32617 3.75 1.32617 4.12007C1.32617 4.49013 1.62222 4.78618 1.99229 4.78618H3.19624V20.4375C3.19624 22.4013 4.79492 24 6.75874 24H17.239C19.2028 24 20.8015 22.4013 20.8015 20.4375V4.78618H22.0054C22.3755 4.78618 22.6716 4.49013 22.6716 4.12007C22.6716 3.75 22.3755 3.45395 22.0054 3.45395ZM8.31795 2.6398C8.31795 1.91941 8.90512 1.33224 9.62551 1.33224H14.3722C15.0926 1.33224 15.6798 1.91941 15.6798 2.6398V3.45395H8.31795V2.6398ZM19.4693 20.4375C19.4693 21.6661 18.4676 22.6678 17.239 22.6678H6.75874C5.53012 22.6678 4.52847 21.6661 4.52847 20.4375V4.78618H19.4742V20.4375H19.4693Z" fill="#414141"/>
<path d="M11.9981 20.2796C12.3682 20.2796 12.6643 19.9835 12.6643 19.6135V7.84043C12.6643 7.47037 12.3682 7.17432 11.9981 7.17432C11.6281 7.17432 11.332 7.47037 11.332 7.84043V19.6085C11.332 19.9786 11.6281 20.2796 11.9981 20.2796Z" fill="#414141"/>
<path d="M7.65245 19.5441C8.02251 19.5441 8.31857 19.248 8.31857 18.878V8.57041C8.31857 8.20035 8.02251 7.9043 7.65245 7.9043C7.28238 7.9043 6.98633 8.20035 6.98633 8.57041V18.878C6.98633 19.248 7.28732 19.5441 7.65245 19.5441Z" fill="#414141"/>
<path d="M16.3458 19.5441C16.7159 19.5441 17.0119 19.248 17.0119 18.878V8.57041C17.0119 8.20035 16.7159 7.9043 16.3458 7.9043C15.9757 7.9043 15.6797 8.20035 15.6797 8.57041V18.878C15.6797 19.248 15.9757 19.5441 16.3458 19.5441Z" fill="#414141"/>
</svg>
