<svg width="50" height="50" viewBox="0 0 50 50" fill="none" xmlns="http://www.w3.org/2000/svg">
<path d="M31.6262 0H29.6633L11.2899 8.35161V13.3484L12.9028 12.6153V22.5806H6.45117V37.0968H33.8705V33.871H48.3867V12.6161L49.9996 13.3492V8.35161L31.6262 0ZM11.2899 24.1935H12.9028V27.4194H11.2899V24.1935ZM16.1286 35.4839H8.06407V24.1935H9.67698V29.0323H14.5157V24.1935H16.1286V35.4839ZM32.2576 35.4839H17.7415V24.1935H32.2576V35.4839ZM35.4834 32.2581H33.8705V22.5806H25.806V17.7419H35.4834V32.2581ZM46.7738 32.2581H37.0963V16.129H24.1931V22.5806H14.5157V11.8831L30.0133 4.83871H31.2762L46.7738 11.8831V32.2581ZM48.3867 10.8444L31.6262 3.22581H29.6633L12.9028 10.8444V9.38952L30.0133 1.6129H31.2762L48.3867 9.39032V10.8444Z" fill="white"/>
<path d="M30.6758 41.258C30.0685 41.0548 29.396 41.1144 28.8331 41.4217L27.0565 42.3927L27.3008 41.6669C27.5306 40.9846 27.4177 40.2281 26.9976 39.6427C26.5766 39.0596 25.896 38.7096 25.1758 38.7096C24.2532 38.7096 23.4363 39.2628 23.0935 40.1193L22.046 42.7386H19.5629L19.5185 42.7169L21.2621 41.7902C22.3129 41.2338 22.8242 40.0039 22.479 38.8668C22.2806 38.2112 21.8339 37.6773 21.2218 37.3677C20.6105 37.058 19.9169 37.012 19.2694 37.2386L12.6532 39.5596L10.2565 41.1265H4.85565V39.516H0V41.1289H3.24274V48.387H0V49.9999H4.85565V48.5612L7.92339 49.1749L18.6452 49.1911L26.7887 47.562L30.9677 45.5298C32.0936 44.9749 32.5694 43.6427 32.0524 42.4983C31.7863 41.9144 31.2855 41.462 30.6758 41.258ZM24.5911 40.7185C24.7629 40.2854 25.4153 40.2064 25.6863 40.5846C25.8056 40.7515 25.8379 40.958 25.7718 41.1523L25.2379 42.7386H23.7823L24.5911 40.7185ZM30.254 44.0838L26.3685 46.0007L18.4871 47.5773H8.16129L4.85565 46.9161V42.7386H10.7452L13.2831 41.0467L19.8032 38.7588C20.0315 38.6798 20.2774 38.6951 20.4919 38.8048C20.7081 38.9144 20.8653 39.1023 20.9355 39.3338C21.0573 39.7346 20.8774 40.1677 20.5065 40.3644L16 42.7604L19.1815 44.3515H26.8363L29.6065 42.8378C29.779 42.7427 29.9774 42.7233 30.1645 42.7878C30.3516 42.8499 30.5008 42.9838 30.5823 43.1636C30.7395 43.5112 30.5952 43.9152 30.254 44.0838Z" fill="white"/>
<path d="M30.6451 32.2578H29.0322V33.8707H30.6451V32.2578Z" fill="white"/>
<path d="M27.4192 32.2578H24.1934V33.8707H27.4192V32.2578Z" fill="white"/>
<path d="M30.6456 29.0322H22.5811V30.6451H30.6456V29.0322Z" fill="white"/>
</svg>
