<svg width="10" height="10" viewBox="0 0 10 10" fill="none" xmlns="http://www.w3.org/2000/svg">
<path d="M0.0999197 3.14588L4.76964 7.81529C4.83636 7.88208 4.91312 7.91553 4.99995 7.91553C5.08678 7.91553 5.16367 7.88208 5.23043 7.81529L9.89976 3.14588C9.96666 3.07899 10 3.00223 10 2.91537C10 2.82854 9.96655 2.75168 9.89976 2.68493L9.39887 2.18406C9.33208 2.11728 9.25522 2.0839 9.16839 2.0839C9.08156 2.0839 9.0047 2.11728 8.93791 2.18406L4.99995 6.12196L1.06184 2.18382C0.995091 2.11703 0.918194 2.08386 0.831506 2.08386C0.744537 2.08386 0.667676 2.11724 0.600922 2.18382L0.0999551 2.68489C0.0332017 2.75164 3.4777e-05 2.82854 3.47694e-05 2.91533C4.29534e-07 3.00223 0.0331664 3.07909 0.0999197 3.14588Z" fill="#414141"/>
</svg>
