<svg width="20" height="20" viewBox="0 0 20 20" fill="none" xmlns="http://www.w3.org/2000/svg">
<path d="M10 20C4.48606 20 0 15.5139 0 10C0 4.48606 4.48606 0 10 0C15.5139 0 20 4.48606 20 10C20 15.5139 15.5139 20 10 20ZM10 0.606061C4.82 0.606061 0.606061 4.82 0.606061 10C0.606061 15.18 4.82 19.3939 10 19.3939C15.18 19.3939 19.3939 15.18 19.3939 10C19.3939 4.82 15.18 0.606061 10 0.606061Z" fill="#F34970"/>
<path d="M9.99916 14.5995C8.55795 14.5995 7.11734 14.2044 5.83188 13.4129L5.59188 13.265C5.44946 13.1765 5.40522 12.9905 5.49249 12.848C5.57976 12.7056 5.76643 12.6614 5.90946 12.7492L6.14946 12.8971C8.52461 14.3595 11.4743 14.3602 13.8489 12.8965L14.0889 12.748C14.2313 12.6608 14.4186 12.7044 14.5058 12.8468C14.5937 12.9892 14.5495 13.1759 14.407 13.2638L14.1664 13.4123C12.8816 14.2038 11.4404 14.5995 9.99916 14.5995Z" fill="#F34970"/>
<path d="M8.56488 8.09138C8.4873 8.09138 8.40972 8.06168 8.35033 8.00289L7.1576 6.81016L5.96488 8.00289C5.84669 8.12107 5.65457 8.12107 5.53639 8.00289C5.41821 7.88471 5.41821 7.69259 5.53639 7.57441L6.94306 6.16774C7.06124 6.04956 7.25336 6.04956 7.37154 6.16774L8.77821 7.57441C8.89639 7.69259 8.89639 7.88471 8.77821 8.00289C8.72003 8.06168 8.64245 8.09138 8.56488 8.09138Z" fill="#F34970"/>
<path d="M14.249 8.09138C14.1714 8.09138 14.0938 8.06168 14.0344 8.00289L12.8417 6.81016L11.649 8.00289C11.5308 8.12107 11.3387 8.12107 11.2205 8.00289C11.1023 7.88471 11.1023 7.69259 11.2205 7.57441L12.6271 6.16774C12.7453 6.04956 12.9374 6.04956 13.0556 6.16774L14.4623 7.57441C14.5805 7.69259 14.5805 7.88471 14.4623 8.00289C14.4041 8.06168 14.3265 8.09138 14.249 8.09138Z" fill="#F34970"/>
</svg>
