<svg width="20" height="20" viewBox="0 0 20 20" fill="none" xmlns="http://www.w3.org/2000/svg">
<path d="M16.1931 13.8717C16.1138 13.8717 16.0345 13.8426 15.9726 13.7839L12.2617 10.3027C12.1321 10.1815 12.1257 9.97703 12.2475 9.8474C12.3694 9.71649 12.5726 9.71068 12.7035 9.83321L16.4143 13.3144C16.5439 13.4357 16.5504 13.6401 16.4285 13.7698C16.3647 13.8375 16.2795 13.8717 16.1931 13.8717Z" fill="#F34970"/>
<path d="M3.80617 13.8719C3.7204 13.8719 3.63463 13.8377 3.57078 13.77C3.44889 13.6404 3.45534 13.4359 3.58497 13.3147L7.29708 9.83346C7.42735 9.71221 7.63179 9.71737 7.75303 9.84765C7.87492 9.97727 7.86847 10.1817 7.73885 10.303L4.02673 13.7842C3.96482 13.8429 3.8855 13.8719 3.80617 13.8719Z" fill="#F34970"/>
<path d="M18.3877 17.109H1.61228C0.723591 17.109 0 16.386 0 15.4967V4.5029C0 3.61357 0.723591 2.89062 1.61228 2.89062H18.3877C19.2764 2.89062 20 3.61357 20 4.5029V15.4967C20 16.386 19.2764 17.109 18.3877 17.109ZM1.61228 3.53554C1.07894 3.53554 0.644912 3.96956 0.644912 4.5029V15.4967C0.644912 16.0301 1.07894 16.4641 1.61228 16.4641H18.3877C18.9211 16.4641 19.3551 16.0301 19.3551 15.4967V4.5029C19.3551 3.96956 18.9211 3.53554 18.3877 3.53554H1.61228Z" fill="#F34970"/>
<path d="M10.0002 11.62C9.57132 11.62 9.14245 11.4774 8.81613 11.193L0.535464 3.96938C0.401322 3.85265 0.387134 3.64885 0.503863 3.51407C0.621882 3.37993 0.825029 3.36767 0.959171 3.48311L9.23984 10.7061C9.65193 11.0653 10.3484 11.0653 10.7599 10.7061L19.0302 3.49472C19.1637 3.37799 19.3669 3.39089 19.4855 3.52568C19.6023 3.66046 19.5887 3.86361 19.4546 3.98098L11.1842 11.1924C10.8573 11.4774 10.4291 11.62 10.0002 11.62Z" fill="#F34970"/>
</svg>
