<svg width="20" height="20" viewBox="0 0 20 20" fill="none" xmlns="http://www.w3.org/2000/svg">
<g clip-path="url(#clip0)">
<path d="M16.0738 20C15.2417 20 14.2367 19.7914 13.1314 19.3744C10.7084 18.4608 8.07206 16.6553 5.7082 14.2915C3.34367 11.9269 1.53814 9.28994 0.623947 6.86688C-0.206836 4.66379 -0.208854 2.85558 0.619238 2.02816C0.738305 1.90909 0.859391 1.78128 0.984513 1.64943C1.73995 0.854973 2.59361 -0.0390437 3.72509 0.00131823C4.50474 0.0336078 5.26018 0.517951 6.03379 1.48058C8.31962 4.32341 7.28904 5.33649 6.09635 6.51102L5.88579 6.71956C5.69071 6.91464 5.32207 7.81807 8.75149 11.2475C9.87086 12.3669 10.8254 13.1862 11.5883 13.682C12.0686 13.9941 12.9276 14.4664 13.2801 14.1139L13.492 13.8999C14.6652 12.7099 15.6783 11.6827 18.5191 13.9665C19.4817 14.7401 19.9654 15.4949 19.9977 16.2759C20.0441 17.4067 19.1433 18.2624 18.3482 19.0172C18.217 19.1423 18.0892 19.2634 17.9701 19.3818C17.5591 19.7935 16.9019 20 16.0738 20ZM3.64436 0.672671C2.84049 0.672671 2.11465 1.43686 1.47222 2.11292C1.34306 2.2488 1.21794 2.38065 1.09484 2.50376C0.477971 3.11995 0.540532 4.73913 1.25359 6.63009C2.13483 8.9657 3.88586 11.5179 6.18447 13.8165C8.48241 16.1138 11.0333 17.8648 13.3696 18.7454C15.2605 19.4598 16.8797 19.5203 17.4952 18.9048C17.6183 18.7817 17.7502 18.6566 17.8861 18.5281C18.5769 17.8716 19.3606 17.1275 19.3263 16.3021C19.3028 15.7351 18.8897 15.1249 18.0986 14.4892C15.7314 12.5855 15.0695 13.2575 13.9716 14.3708L13.7564 14.5881C13.2317 15.1135 12.3794 14.9971 11.2223 14.245C10.4198 13.723 9.42822 12.8741 8.27656 11.7217C5.43038 8.87623 4.52022 7.13461 5.41087 6.24194L5.62546 6.03004C6.74147 4.9322 7.41484 4.26959 5.51043 1.90102C4.87338 1.1106 4.26392 0.697561 3.69683 0.673344C3.67934 0.672671 3.66185 0.672671 3.64436 0.672671Z" fill="#F34970"/>
</g>
<defs>
<clipPath id="clip0">
<rect width="20" height="20" fill="white"/>
</clipPath>
</defs>
</svg>
