<svg width="24" height="24" viewBox="0 0 24 24" fill="none" xmlns="http://www.w3.org/2000/svg">
    <rect width="24" height="24" rx="3" fill="#F34970"/>
<g clip-path="url(#clip0)" transform="translate(4,4)">
<path d="M5.61364 9.05566H8.11339C7.67461 10.2962 6.48622 11.1857 5.09493 11.1754C3.40679 11.1629 2.01092 9.81246 1.94539 8.12554C1.87514 6.31729 3.32585 4.8238 5.11878 4.8238C5.93856 4.8238 6.68667 5.13616 7.25066 5.64799C7.38425 5.76925 7.5876 5.77002 7.71899 5.64635L8.63713 4.78222C8.7807 4.64706 8.78123 4.41881 8.63807 4.2832C7.74364 3.43583 6.54379 2.90766 5.22066 2.88182C2.39856 2.82673 0.0197849 5.14056 0.000127336 7.96315C-0.0197048 10.8069 2.2796 13.1184 5.11878 13.1184C7.84915 13.1184 10.0796 10.9806 10.229 8.28755C10.233 8.25379 10.2356 7.1127 10.2356 7.1127H5.61364C5.42418 7.1127 5.27062 7.26626 5.27062 7.45572V8.71265C5.27062 8.9021 5.42422 9.05566 5.61364 9.05566Z" fill="white"/>
<path d="M14.4721 7.22692V5.99883C14.4721 5.83281 14.3375 5.69824 14.1715 5.69824H13.1379C12.9718 5.69824 12.8373 5.83281 12.8373 5.99883V7.22692H11.6092C11.4432 7.22692 11.3086 7.36149 11.3086 7.52751V8.56116C11.3086 8.72718 11.4432 8.86175 11.6092 8.86175H12.8373V10.0898C12.8373 10.2559 12.9718 10.3904 13.1379 10.3904H14.1715C14.3375 10.3904 14.4721 10.2559 14.4721 10.0898V8.86175H15.7002C15.8662 8.86175 16.0008 8.72718 16.0008 8.56116V7.52751C16.0008 7.36149 15.8662 7.22692 15.7002 7.22692H14.4721Z" fill="white"/>
</g>
<defs>
<clipPath id="clip0">
<rect width="16" height="16" fill="white"/>
</clipPath>
</defs>
</svg>
