<svg width="50" height="50" viewBox="0 0 50 50" fill="none" xmlns="http://www.w3.org/2000/svg">
<path d="M7.66113 31.4514C7.66113 33.2304 9.10791 34.6772 10.8869 34.6772C12.666 34.6772 14.1127 33.2304 14.1127 31.4514V28.2256H7.66113V31.4514ZM9.27404 29.8385H12.4998V31.4514C12.4998 32.3409 11.7765 33.0643 10.8869 33.0643C9.99742 33.0643 9.27404 32.3409 9.27404 31.4514V29.8385Z" fill="#F34970"/>
<path d="M26.8808 22.2223L25.5429 21.3223C25.5396 21.3263 25.2808 21.6965 24.7275 22.1174L25.7042 23.4013C26.4743 22.815 26.8413 22.2811 26.8808 22.2223Z" fill="#F34970"/>
<path d="M20.5647 25.0003C22.0034 25.0003 23.3187 24.7156 24.4743 24.1544L23.7687 22.7035C22.8348 23.1576 21.7574 23.3874 20.5647 23.3874C17.0534 23.3874 15.6445 21.406 15.5864 21.3213L14.2485 22.2213C14.3243 22.335 16.151 25.0003 20.5647 25.0003Z" fill="#F34970"/>
<path d="M45.5646 19.3548H41.1985L34.6775 25.8758L34.5388 25.7371C34.0702 25.2685 33.4218 25 32.7589 25C32.5041 25 32.2638 25.0492 32.0315 25.1202L30.213 20.9637C29.571 19.4968 28.1202 18.5484 26.5194 18.5484H25.117C26.1622 17.704 26.9638 16.5758 27.4146 15.2823C29.0041 15.0839 30.242 13.7395 30.242 12.0968V9.67742C30.242 4.34113 25.9009 0 20.5646 0C15.2283 0 10.8872 4.34113 10.8872 9.67742V12.0968C10.8872 13.7395 12.1251 15.0839 13.7154 15.2823C14.1662 16.5758 14.9678 17.704 16.013 18.5484H14.4936C12.9573 18.5484 11.5751 19.4024 10.8872 20.7774L9.45571 23.6395C9.29926 23.6944 9.14684 23.7589 8.99845 23.8331L5.77264 25.446C4.94845 25.8581 4.43555 26.6871 4.43555 27.6097V31.4516C4.43555 35.0089 7.3299 37.9032 10.8872 37.9032C11.4493 37.9032 11.992 37.8234 12.513 37.6879L11.5186 39.6758L11.9299 40.0871C12.0452 40.2032 12.7904 40.8685 14.8557 41.3685L14.2057 44.6177L12.1597 45.6411C11.3743 46.0323 10.8872 46.821 10.8872 47.6984C10.8872 48.9677 11.9194 50 13.1888 50H16.8226C17.9726 50 18.9702 49.1815 19.1944 48.0548L20.4186 41.9331C20.4694 41.9331 20.5138 41.9355 20.5646 41.9355C20.6146 41.9355 20.6597 41.9331 20.7097 41.9331L21.9339 48.0548C22.1589 49.1815 23.1565 50 24.3065 50H27.9404C29.2097 50 30.242 48.9677 30.242 47.6984C30.242 46.821 29.7549 46.0323 28.9694 45.6395L26.9235 44.6161L26.2847 41.4218C28.7436 40.9226 29.8154 40.2323 29.8831 40.1871L30.4275 39.8242L28.4178 34.8L31.0485 37.4306L32.2267 36.2524C33.7057 36.0798 34.871 34.9145 35.0436 33.4355L35.0807 33.3984L35.6226 33.9403C36.0912 34.4089 36.7396 34.6774 37.4025 34.6774C38.7904 34.6774 39.9194 33.5484 39.9194 32.1605C39.9194 31.4879 39.6581 30.8556 39.1823 30.3806L39.0436 30.2419L45.5646 23.721V19.3548ZM27.792 13.5016C27.8089 13.304 27.8226 13.1056 27.8226 12.9032V10.7081C28.3025 10.9879 28.6291 11.5024 28.6291 12.0968C28.6291 12.7032 28.2888 13.2266 27.792 13.5016ZM12.5001 12.0968C12.5001 11.5024 12.8267 10.9879 13.3065 10.7081V12.9032C13.3065 13.1056 13.3202 13.304 13.3372 13.5016C12.8404 13.2266 12.5001 12.7032 12.5001 12.0968ZM13.4315 8.94677C13.1041 9.01774 12.8009 9.14758 12.5186 9.30968C12.713 5.03387 16.242 1.6129 20.5646 1.6129C24.8872 1.6129 28.4162 5.03387 28.6105 9.30968C28.3283 9.14758 28.0251 9.01774 27.6976 8.94677C27.3855 7.97097 26.4807 7.25806 25.4033 7.25806C25.0985 7.25806 24.813 7.13952 24.5968 6.92419L22.9839 5.31129L21.371 6.92419C21.1549 7.13952 20.8694 7.25806 20.5646 7.25806H15.7259C14.6485 7.25806 13.7436 7.97097 13.4315 8.94677ZM14.9194 12.9032V9.67742C14.9194 9.23306 15.2807 8.87097 15.7259 8.87097H20.5646C21.2993 8.87097 21.9912 8.58468 22.5114 8.06452L22.9839 7.59194L23.4565 8.06452C23.9775 8.58468 24.6686 8.87097 25.4033 8.87097C25.8485 8.87097 26.2097 9.23306 26.2097 9.67742V12.9032C26.2097 16.0161 23.6767 18.5484 20.5646 18.5484C17.4525 18.5484 14.9194 16.0161 14.9194 12.9032ZM12.3299 21.4984C12.7428 20.6734 13.571 20.1613 14.4936 20.1613H18.1452V19.7379C18.9033 20.0073 19.7154 20.1613 20.5646 20.1613C21.4138 20.1613 22.2259 20.0073 22.9839 19.7379V20.1613H26.5194C27.4799 20.1613 28.3509 20.7306 28.7364 21.6105L29.3799 23.0823C28.4049 23.9379 25.0009 26.6129 20.5646 26.6129C19.2726 26.6129 17.9565 26.3774 16.6509 25.925C16.4646 25.7347 16.2493 25.5694 16.0017 25.446L12.7759 23.8331C12.3355 23.6137 11.8565 23.4766 11.3678 23.4226L12.3299 21.4984ZM27.0162 29.8387L28.3412 33.0194L27.8872 33.4734L27.0162 31.296V29.8387ZM18.1452 30.6452H17.3388V27.8097C18.4154 28.0798 19.4952 28.2258 20.5646 28.2258C22.3614 28.2258 23.9928 27.8452 25.4033 27.3137V30.6452H22.9839H18.1452ZM21.371 32.2581V33.871H19.7581V32.2581H21.371ZM10.8872 36.2903C8.21861 36.2903 6.04845 34.1202 6.04845 31.4516V27.6097C6.04845 27.3024 6.21942 27.0258 6.49442 26.8887L9.72022 25.2758C10.0807 25.0952 10.4839 25 10.8872 25C11.2904 25 11.6936 25.0952 12.0541 25.2758L15.2799 26.8887C15.5549 27.0258 15.7259 27.3024 15.7259 27.6097V31.4516C15.7259 34.1202 13.5557 36.2903 10.8872 36.2903ZM17.6138 47.7387C17.5388 48.1145 17.2065 48.3871 16.8226 48.3871H13.1888C12.8097 48.3871 12.5001 48.0782 12.5001 47.6984C12.5001 47.4355 12.646 47.1992 12.8815 47.0823L15.6331 45.7065L15.9033 44.3548H18.2904L17.6138 47.7387ZM18.613 42.7419H16.2259L16.4404 41.6702C17.1194 41.7686 17.9049 41.8419 18.7847 41.8879L18.613 42.7419ZM22.5162 42.7419L22.3452 41.8879C23.2073 41.8452 23.9928 41.7758 24.692 41.6847L24.9033 42.7419H22.5162ZM28.2476 47.0823C28.4831 47.1992 28.6291 47.4355 28.6291 47.6984C28.6291 48.0782 28.3194 48.3871 27.9404 48.3871H24.3065C23.9226 48.3871 23.5904 48.1145 23.5162 47.7387L22.8388 44.3548H25.2259L25.496 45.7065L28.2476 47.0823ZM20.5646 40.3226C16.3993 40.3226 14.3726 39.6298 13.5468 39.2274L14.921 36.479C16.1944 35.4548 17.0694 33.9589 17.2831 32.2581H18.1452V35.4839H22.9839V32.2581H25.6638L28.4105 39.125C27.3847 39.5548 24.9412 40.3226 20.5646 40.3226ZM27.8726 27.7024L27.3428 26.4298C28.5355 25.7895 29.4606 25.1129 30.0549 24.6258L30.6936 26.0847C30.6307 26.1758 30.5807 26.275 30.5291 26.3742L27.8726 27.7024ZM28.4952 29.1944L30.3654 28.2597C30.4847 28.646 30.6856 29.0032 30.9791 29.2968L31.521 29.8387L29.5743 31.7855L28.4952 29.1944ZM31.0485 35.15L29.7694 33.871L32.6614 30.979L33.9404 32.2581L31.0485 35.15ZM37.4025 33.0645C37.1646 33.0645 36.9315 32.9677 36.763 32.8L32.1194 28.1565C31.9485 27.9855 31.8549 27.7589 31.8549 27.5169C31.8549 27.0185 32.2605 26.6129 32.7589 26.6129C32.9968 26.6129 33.2299 26.7097 33.3985 26.8774L38.042 31.521C38.213 31.6919 38.3065 31.9186 38.3065 32.1605C38.3065 32.6589 37.9009 33.0645 37.4025 33.0645ZM43.9517 23.0532L37.9033 29.1016L35.8178 27.0161L41.8662 20.9677H43.9517V23.0532Z" fill="#F34970"/>
<path d="M24.5968 10.4834H22.9839V12.0963H24.5968V10.4834Z" fill="#F34970"/>
<path d="M18.1451 10.4834H16.5322V12.0963H18.1451V10.4834Z" fill="#F34970"/>
<path d="M21.3712 15.3223H19.7583V16.9352H21.3712V15.3223Z" fill="#F34970"/>
</svg>
