<svg width="50" height="50" viewBox="0 0 50 50" fill="none" xmlns="http://www.w3.org/2000/svg">
<g clip-path="url(#clip0)">
<path d="M48.9179 0.696903C48.8305 0.728405 40.0064 3.87388 25 3.87388C10.0228 3.87388 1.16951 0.728405 1.08131 0.696116L0 0.304309V13.66L10.0929 5.24934L13.4403 15.293L20.0329 6.22708L25 16.1608L29.9671 6.22708L36.5597 15.293L39.9071 5.24934L50 13.66V0.302734L48.9179 0.696903ZM48.3871 6.60117L45.676 7.95694L44.1016 6.64448L48.3871 5.03749V6.60117ZM35.6733 4.94534C36.6372 4.84454 37.55 4.73428 38.4187 4.61654L36.5526 10.2164L35.6733 4.94534ZM34.933 10.3141L31.287 5.3021C32.2474 5.2454 33.1732 5.17688 34.0635 5.0997L34.933 10.3141ZM13.3848 10.0254L11.5813 4.61654C12.4445 4.73349 13.3517 4.84375 14.3082 4.94377L13.3848 10.0254ZM15.9195 5.09773C16.8146 5.1761 17.7451 5.24461 18.7122 5.30132L14.9394 10.4881L15.9195 5.09773ZM1.6129 5.03749L5.89915 6.64448L4.32483 7.95694L1.6129 6.60117V5.03749ZM1.6129 8.40426L2.97182 9.08431L1.6129 10.2164V8.40426ZM7.32501 5.45686L1.6129 3.31472V2.5634C2.91354 2.9552 5.35495 3.61005 8.83238 4.20032L7.32501 5.45686ZM22.6759 7.90614H24.1935V6.29324H22.5806V7.71555L21.4355 5.42614C22.5838 5.46316 23.7671 5.48678 25 5.48678C26.2329 5.48678 27.4162 5.46316 28.5645 5.42536L26.6129 9.32845V7.90614H25V9.51904H26.5176L25 12.5543L22.6759 7.90614ZM48.3871 2.5634V3.31472L42.675 5.45686L41.1676 4.20032C44.6451 3.61005 47.0865 2.9552 48.3871 2.5634ZM47.0282 9.08431L48.3871 8.40426V10.2164L47.0282 9.08431Z" fill="#F34970"/>
<path d="M43.5483 12.7441C39.9909 12.7441 37.0967 16.3618 37.0967 20.8087C37.0967 24.8488 39.4885 28.1947 42.5934 28.7747C42.4942 28.9787 42.3524 29.1543 42.1772 29.3666C41.7613 29.8698 41.2435 30.4963 41.2435 31.6938C41.2435 32.8901 41.7613 33.5174 42.1772 34.0206C42.517 34.4317 42.7418 34.7038 42.7418 35.3197C42.7418 35.9359 42.5178 36.2084 42.1772 36.6191C41.7613 37.1224 41.2435 37.7489 41.2435 38.9463C41.2435 40.1438 41.7613 40.7707 42.1764 41.2747C42.517 41.6866 42.7411 41.9583 42.7411 42.5762C42.7411 43.194 42.517 43.4665 42.1764 43.8788C41.7606 44.3836 41.2435 45.0101 41.2435 46.2083C41.2435 47.407 41.7613 48.0335 42.1764 48.5383C42.5178 48.9506 42.7418 49.2223 42.7418 49.8409H44.3547C44.3547 48.6431 43.8369 48.0158 43.4215 47.5109C43.0813 47.0987 42.8572 46.8262 42.8572 46.2083C42.8572 45.5909 43.0813 45.318 43.4215 44.9061C43.8369 44.4013 44.3547 43.7744 44.3547 42.5762C44.3547 41.3779 43.8369 40.7514 43.4207 40.2474C43.0813 39.8351 42.8564 39.5634 42.8564 38.9463C42.8564 38.3293 43.0805 38.0568 43.4207 37.6465C43.8369 37.1432 44.3547 36.5163 44.3547 35.3197C44.3547 34.123 43.8369 33.4965 43.4207 32.9932C43.0813 32.5817 42.8564 32.31 42.8564 31.6938C42.8564 31.0779 43.0805 30.8054 43.4207 30.3939C43.7393 30.0084 44.1153 29.5489 44.2748 28.818C47.4912 28.3648 49.9999 24.9472 49.9999 20.8087C49.9999 16.3618 47.1057 12.7441 43.5483 12.7441ZM43.5483 27.2603C40.8797 27.2603 38.7096 24.3656 38.7096 20.8087C38.7096 17.2513 40.8797 14.357 43.5483 14.357C46.2169 14.357 48.387 17.2513 48.387 20.8087C48.387 24.3656 46.2169 27.2603 43.5483 27.2603Z" fill="#F34970"/>
<path d="M44.9731 19.4168C45.0979 19.8563 45.1617 20.3249 45.1617 20.8088C45.1617 22.7781 44.1029 24.0346 43.5488 24.0346V25.6475C45.2972 25.6475 46.7746 23.4314 46.7746 20.8088C46.7746 20.1756 46.69 19.5578 46.523 18.9746L44.9731 19.4168Z" fill="#F34970"/>
<path d="M44.3135 18.0955L45.5602 17.0713C44.9771 16.3617 44.2623 15.9707 43.5488 15.9707V17.5836C43.7158 17.5836 44.0036 17.7183 44.3135 18.0955Z" fill="#F34970"/>
<path d="M26.3123 36.9339C26.3123 35.8766 25.926 35.3163 25.6165 34.8654C25.368 34.5051 25.2042 34.2665 25.2042 33.7104C25.2042 33.1548 25.368 32.9162 25.6165 32.5551C25.8496 32.2153 26.1253 31.8132 26.2477 31.1848L31.0195 26.413C31.8189 25.6156 32.2583 24.554 32.2583 23.4235C32.2583 21.0927 30.3615 19.1963 28.03 19.1963C26.9018 19.1963 25.8398 19.6357 25.0396 20.4339L25.0003 20.4745L24.9593 20.4331C24.1599 19.6357 23.0987 19.1963 21.9705 19.1963C19.639 19.1963 17.7422 21.0927 17.7422 23.4235C17.7422 24.5532 18.1816 25.6156 18.981 26.413L24.256 31.6888C23.952 32.1326 23.5921 32.6906 23.5921 33.7104C23.5921 34.7669 23.9776 35.3277 24.2875 35.7786C24.5356 36.1389 24.6994 36.3775 24.6994 36.9339C24.6994 37.4887 24.5356 37.7277 24.2875 38.0888C23.9776 38.5405 23.5913 39.1008 23.5913 40.1573C23.5913 41.2138 23.9776 41.775 24.2875 42.2258C24.5356 42.5865 24.6994 42.8252 24.6994 43.3816C24.6994 43.9388 24.5348 44.1782 24.2867 44.5412C23.9768 44.9929 23.5913 45.5548 23.5913 46.6113C23.5913 47.6694 23.9768 48.2317 24.2867 48.6826C24.5348 49.0444 24.6986 49.2839 24.6986 49.8414H26.3115C26.3115 48.7842 25.926 48.2219 25.6165 47.771C25.368 47.4091 25.2034 47.1697 25.2034 46.6113C25.2034 46.0549 25.368 45.8155 25.6157 45.4524C25.9252 45.0008 26.3107 44.4389 26.3107 43.3816C26.3107 42.3251 25.9244 41.7639 25.6149 41.3131C25.3665 40.9524 25.2027 40.7137 25.2027 40.1573C25.2027 39.6009 25.3665 39.3631 25.6149 39.0016C25.9268 38.5511 26.3123 37.9904 26.3123 36.9339ZM19.3551 23.4235C19.3551 21.9815 20.5285 20.8092 21.9705 20.8092C22.6687 20.8092 23.3251 21.0809 23.8189 21.5743L25.0003 22.7564L26.1808 21.5751C26.6754 21.0809 27.3326 20.8092 28.03 20.8092C29.472 20.8092 30.6454 21.9815 30.6454 23.4235C30.6454 24.1228 30.3737 24.7792 29.8799 25.2718L25.0003 30.1527L20.1206 25.2718C19.6268 24.7792 19.3551 24.1228 19.3551 23.4235Z" fill="#F34970"/>
<path d="M6.45139 24.0344C5.89735 24.0344 4.83849 22.7779 4.83849 20.8086C4.83849 20.3247 4.90228 19.8561 5.02711 19.4166L3.47642 18.9736C3.31025 19.5576 3.22559 20.1754 3.22559 20.8086C3.22559 23.4312 4.70303 25.6473 6.45139 25.6473V24.0344Z" fill="#F34970"/>
<path d="M6.45183 17.5836V15.9707C5.73831 15.9707 5.02361 16.3617 4.44043 17.0713L5.68712 18.0955C5.99702 17.7183 6.28487 17.5836 6.45183 17.5836Z" fill="#F34970"/>
<path d="M8.75559 31.6938C8.75559 30.4971 8.23778 29.8698 7.82195 29.3666C7.64672 29.1543 7.50496 28.9779 7.40573 28.7747C10.5114 28.1947 12.9032 24.8488 12.9032 20.8087C12.9032 16.3618 10.009 12.7441 6.45161 12.7441C2.89425 12.7441 0 16.3618 0 20.8087C0 24.9472 2.50874 28.3648 5.7251 28.818C5.88458 29.5489 6.26063 30.0084 6.5792 30.3939C6.91863 30.8062 7.14348 31.0779 7.14348 31.6938C7.14348 32.31 6.91942 32.5825 6.5792 32.9932C6.16298 33.4965 5.64516 34.1238 5.64516 35.3197C5.64516 36.5156 6.16298 37.1432 6.5792 37.6465C6.91863 38.0576 7.14348 38.3301 7.14348 38.9463C7.14348 39.5642 6.91942 39.8359 6.5792 40.2474C6.16298 40.7514 5.64516 41.3787 5.64516 42.5762C5.64516 43.7736 6.16298 44.4013 6.57841 44.9061C6.91863 45.318 7.14269 45.5909 7.14269 46.2083C7.14269 46.8262 6.91863 47.0987 6.57841 47.5109C6.16298 48.0158 5.64516 48.6431 5.64516 49.8409H7.25806C7.25806 49.2223 7.48212 48.9506 7.82274 48.5383C8.23856 48.0335 8.75559 47.407 8.75559 46.2083C8.75559 45.0101 8.23778 44.3836 7.82274 43.8788C7.48212 43.4665 7.25806 43.194 7.25806 42.5762C7.25806 41.9583 7.48212 41.6858 7.82274 41.2747C8.23856 40.7707 8.75559 40.1438 8.75559 38.9463C8.75559 37.7489 8.23778 37.1224 7.82195 36.6191C7.48212 36.2076 7.25728 35.9359 7.25728 35.3197C7.25728 34.7038 7.48133 34.4309 7.82195 34.0206C8.23778 33.5174 8.75559 32.8901 8.75559 31.6938ZM1.6129 20.8087C1.6129 17.2513 3.783 14.357 6.45161 14.357C9.12023 14.357 11.2903 17.2513 11.2903 20.8087C11.2903 24.3656 9.12023 27.2603 6.45161 27.2603C3.783 27.2603 1.6129 24.3656 1.6129 20.8087Z" fill="#F34970"/>
<path d="M29.3908 15.8367C28.9273 16.1462 28.2256 16.614 28.2256 17.5834H29.8385C29.8385 17.4921 29.9708 17.3889 30.2862 17.1783C30.7497 16.8687 31.4514 16.4009 31.4514 15.4315C31.4514 14.4624 30.7497 13.9946 30.2862 13.6851C29.9708 13.4744 29.8385 13.3712 29.8385 13.2799C29.8385 13.1897 29.9708 13.0873 30.2854 12.8767C30.7497 12.5679 31.4514 12.1001 31.4514 11.1318H29.8385C29.8385 11.222 29.7062 11.3244 29.3916 11.5351C28.9273 11.8438 28.2256 12.3116 28.2256 13.2799C28.2256 14.2494 28.9273 14.7172 29.3908 15.0267C29.7062 15.2373 29.8385 15.3405 29.8385 15.4315C29.8385 15.5228 29.7062 15.626 29.3908 15.8367Z" fill="#F34970"/>
<path d="M16.5772 18.5239C16.2618 18.3133 16.1295 18.2101 16.1295 18.1187C16.1295 18.0286 16.2618 17.9262 16.5764 17.7155C17.0407 17.4068 17.7424 16.939 17.7424 15.9707H16.1295C16.1295 16.0609 15.9972 16.1633 15.6826 16.3739C15.2183 16.6826 14.5166 17.1505 14.5166 18.1187C14.5166 19.0882 15.2183 19.556 15.6818 19.8655C15.9972 20.0762 16.1295 20.1794 16.1295 20.2703C16.1295 20.3617 15.9972 20.4649 15.6818 20.6755C15.2183 20.985 14.5166 21.4528 14.5166 22.4223H16.1295C16.1295 22.331 16.2618 22.2278 16.5772 22.0171C17.0407 21.7076 17.7424 21.2398 17.7424 20.2703C17.7424 19.3013 17.0407 18.8334 16.5772 18.5239Z" fill="#F34970"/>
<path d="M19.802 41.1022C20.2663 40.7935 20.968 40.3257 20.968 39.3574H19.3551C19.3551 39.4476 19.2228 39.55 18.9082 39.7606C18.4439 40.0694 17.7422 40.5372 17.7422 41.5055C17.7422 42.4749 18.4439 42.9427 18.9074 43.2523C19.2228 43.4629 19.3551 43.5661 19.3551 43.6571C19.3551 43.7484 19.2228 43.8516 18.9074 44.0622C18.4439 44.3718 17.7422 44.8396 17.7422 45.809H19.3551C19.3551 45.7177 19.4874 45.6145 19.8028 45.4038C20.2663 45.0943 20.968 44.6265 20.968 43.6571C20.968 42.688 20.2663 42.2202 19.8028 41.9107C19.4874 41.7 19.3551 41.5968 19.3551 41.5055C19.3551 41.4153 19.4874 41.3129 19.802 41.1022Z" fill="#F34970"/>
<path d="M2.05984 45.1345C2.5241 44.8257 3.22581 44.3579 3.22581 43.3896H1.6129C1.6129 43.4798 1.48059 43.5822 1.16597 43.7929C0.701707 44.1016 0 44.5694 0 45.5377C0 46.5072 0.701707 46.975 1.16518 47.2845C1.48059 47.4951 1.6129 47.5983 1.6129 47.6893C1.6129 47.7806 1.48059 47.8838 1.16518 48.0945C0.701707 48.404 0 48.8718 0 49.8413H1.6129C1.6129 49.7499 1.74521 49.6467 2.06063 49.4361C2.5241 49.1266 3.22581 48.6588 3.22581 47.6893C3.22581 46.7202 2.5241 46.2524 2.06063 45.9429C1.74521 45.7322 1.6129 45.629 1.6129 45.5377C1.6129 45.4475 1.74521 45.3451 2.05984 45.1345Z" fill="#F34970"/>
<path d="M35.1243 28.1989C35.5886 27.8902 36.2903 27.4224 36.2903 26.4541H34.6774C34.6774 26.5443 34.545 26.6467 34.2304 26.8573C33.7662 27.166 33.0645 27.6339 33.0645 28.6021C33.0645 29.5716 33.7662 30.0394 34.2296 30.3489C34.545 30.5596 34.6774 30.6628 34.6774 30.7537C34.6774 30.8451 34.545 30.9483 34.2296 31.1589C33.7662 31.4684 33.0645 31.9362 33.0645 32.9057H34.6774C34.6774 32.8144 34.8097 32.7112 35.1251 32.5005C35.5886 32.191 36.2903 31.7232 36.2903 30.7537C36.2903 29.7847 35.5886 29.3168 35.1251 29.0073C34.8097 28.7967 34.6774 28.6935 34.6774 28.6021C34.6774 28.512 34.8097 28.4096 35.1243 28.1989Z" fill="#F34970"/>
<path d="M48.8343 44.3278C49.2985 44.0191 50.0002 43.5513 50.0002 42.583H48.3873C48.3873 42.6732 48.255 42.7756 47.9404 42.9862C47.4761 43.295 46.7744 43.7628 46.7744 44.7311C46.7744 45.7005 47.4761 46.1683 47.9396 46.4778C48.255 46.6885 48.3873 46.7917 48.3873 46.8826C48.3873 46.974 48.255 47.0772 47.9396 47.2878C47.4761 47.5973 46.7744 48.0651 46.7744 49.0346H48.3873C48.3873 48.9433 48.5196 48.8401 48.835 48.6294C49.2985 48.3199 50.0002 47.8521 50.0002 46.8826C50.0002 45.9136 49.2985 45.4458 48.835 45.1362C48.5196 44.9256 48.3873 44.8224 48.3873 44.7311C48.3873 44.6409 48.5196 44.5385 48.8343 44.3278Z" fill="#F34970"/>
<path d="M16.5302 32.4581C16.2203 31.9943 15.7529 31.293 14.7834 31.293C13.8139 31.293 13.3461 31.9935 13.0366 32.4581C12.6188 33.0839 12.6511 33.0929 12.2294 32.4589C11.9195 31.9943 11.4529 31.293 10.4834 31.293V32.9059C10.5736 32.9059 10.676 33.037 10.8866 33.3532C11.1953 33.8171 11.6624 34.5188 12.6318 34.5188C13.6013 34.5188 14.0687 33.8171 14.3794 33.3532C14.7996 32.722 14.7681 32.7236 15.189 33.3532C15.4977 33.8171 15.9655 34.5188 16.935 34.5188V32.9059C16.8433 32.9059 16.7405 32.7736 16.5302 32.4581Z" fill="#F34970"/>
<path d="M35.8873 39.716C35.5785 39.2521 35.1115 38.5508 34.142 38.5508C33.1726 38.5508 32.7052 39.2521 32.3945 39.716C31.9743 40.3472 32.0058 40.3456 31.5849 39.716C31.2761 39.2521 30.8083 38.5508 29.8389 38.5508V40.1637C29.9306 40.1637 30.0334 40.2956 30.2437 40.611C30.5536 41.0749 31.021 41.7766 31.9905 41.7766C32.9599 41.7766 33.4277 41.0757 33.7372 40.611C34.1558 39.9853 34.1227 39.9762 34.5445 40.6102C34.8544 41.0749 35.321 41.7766 36.2905 41.7766V40.1637C36.2003 40.1637 36.0979 40.0322 35.8873 39.716Z" fill="#F34970"/>
<path d="M37.0967 45.8086H38.7096V47.4215H37.0967V45.8086Z" fill="#F34970"/>
<path d="M11.29 47.4219H12.9029V49.0348H11.29V47.4219Z" fill="#F34970"/>
<path d="M48.3867 32.9062H49.9996V34.5191H48.3867V32.9062Z" fill="#F34970"/>
<path d="M0 30.4863H1.6129V32.0992H0V30.4863Z" fill="#F34970"/>
<path d="M33.0645 17.583H34.6774V19.1959H33.0645V17.583Z" fill="#F34970"/>
</g>
<defs>
<clipPath id="clip0">
<rect width="50" height="50" fill="white"/>
</clipPath>
</defs>
</svg>
