<svg width="50" height="50" viewBox="0 0 50 50" fill="none" xmlns="http://www.w3.org/2000/svg">
<path d="M25.1792 13.2592C26.6235 11.814 27.4194 9.89395 27.4194 7.85026C27.4194 3.63253 23.988 0.201172 19.7703 0.201172C17.7266 0.201172 15.8057 0.996204 14.3614 2.44136L13.7097 3.09306L13.058 2.44136C11.6136 0.996204 9.69356 0.201172 7.64908 0.201172C3.43136 0.201172 0 3.63253 0 7.85026C0 9.89316 0.79582 11.814 2.24019 13.2592L13.7097 24.7286L25.1792 13.2592ZM1.6129 7.85026C1.6129 4.52128 4.3209 1.81408 7.64908 1.81408C9.26199 1.81408 10.7772 2.44136 11.9176 3.58173L13.7097 5.3738L15.5017 3.58173C16.6409 2.44136 18.1574 1.81408 19.7703 1.81408C23.0985 1.81408 25.8065 4.52128 25.8065 7.85026C25.8065 9.46237 25.1784 10.9784 24.0388 12.1188L13.7097 22.4479L3.38056 12.1188C2.24097 10.9784 1.6129 9.46237 1.6129 7.85026Z" fill="#F34970"/>
<path d="M22.8986 10.979C23.7342 10.143 24.1937 9.0318 24.1937 7.85087C24.1937 6.97433 23.9366 6.12613 23.451 5.39844L22.1098 6.29467C22.4178 6.75657 22.5808 7.29447 22.5808 7.85087C22.5808 8.6018 22.2882 9.30744 21.7574 9.83904L13.1396 18.4568L14.28 19.5968L22.8986 10.979Z" fill="#F34970"/>
<path d="M22.2221 4.1698C21.6334 3.7772 20.9502 3.52873 20.2477 3.45312L20.0752 5.05618C20.5202 5.10462 20.9525 5.26173 21.3266 5.51099L22.2221 4.1698Z" fill="#F34970"/>
<path d="M46.0311 18.3018L44.6899 19.198C44.9979 19.6599 45.1609 20.1978 45.1609 20.7542C45.1609 21.5051 44.8683 22.2108 44.3375 22.7424L35.7197 31.3601L36.8601 32.5001L45.4787 23.8823C46.3142 23.0464 46.7738 21.9351 46.7738 20.7542C46.7738 19.8776 46.5166 19.0302 46.0311 18.3018Z" fill="#F34970"/>
<path d="M44.8021 17.0731C44.2134 16.6805 43.5302 16.4321 42.8277 16.3564L42.6553 17.9595C43.1002 18.0079 43.5326 18.1651 43.9067 18.4143L44.8021 17.0731Z" fill="#F34970"/>
<path d="M29.3677 31.2955C29.6756 31.7566 29.8386 32.2945 29.8386 32.8509C29.8386 33.6018 29.546 34.3074 29.0152 34.839L20.3975 43.4568L21.5378 44.5968L30.1564 35.979C30.992 35.143 31.4515 34.0318 31.4515 32.8509C31.4515 31.9743 31.1944 31.1261 30.7089 30.3984L29.3677 31.2955Z" fill="#F34970"/>
<path d="M29.4799 29.1698C28.8912 28.7772 28.208 28.5287 27.5055 28.4531L27.333 30.0562C27.778 30.1046 28.2103 30.2617 28.5844 30.511L29.4799 29.1698Z" fill="#F34970"/>
<path d="M42.3507 13.1045C40.307 13.1045 38.3861 13.8995 36.9418 15.3447L36.2901 15.9964L35.6384 15.3447C34.194 13.8995 32.274 13.1045 30.2295 13.1045C26.0118 13.1045 22.5804 16.5358 22.5804 20.7536C22.5804 22.5771 23.2183 24.3003 24.3819 25.6777C23.3569 26.0554 22.4142 26.6456 21.6192 27.4415L20.9675 28.0932L20.3158 27.4415C18.8714 25.9963 16.9514 25.2013 14.9069 25.2013C10.6892 25.2013 7.25781 28.6326 7.25781 32.8503C7.25781 34.8933 8.05363 36.8141 9.498 38.2592L20.9675 49.7287L32.437 38.2592C33.2241 37.4721 33.8101 36.5416 34.1885 35.5296L36.2901 37.632L47.7596 26.1625C49.2039 24.7173 49.9997 22.7973 49.9997 20.7536C49.9997 16.5358 46.5684 13.1045 42.3507 13.1045ZM31.2966 37.1189L20.9675 47.448L10.6384 37.1189C9.49879 35.9785 8.87072 34.4625 8.87072 32.8503C8.87072 29.5214 11.5787 26.8142 14.9069 26.8142C16.5198 26.8142 18.035 27.4415 19.1754 28.5818L20.9675 30.3739L22.7596 28.5818C23.8988 27.4415 25.4152 26.8142 27.0281 26.8142C30.3563 26.8142 33.0643 29.5214 33.0643 32.8503C33.0643 34.4625 32.4362 35.9785 31.2966 37.1189ZM46.6192 25.0221L36.2901 35.3512L34.6287 33.6899C34.6587 33.4134 34.6772 33.1335 34.6772 32.8511C34.6772 28.6326 31.2458 25.2013 27.0281 25.2013C26.7457 25.2013 26.4658 25.2198 26.1893 25.2497L25.9617 25.0221C24.8214 23.8817 24.1933 22.3657 24.1933 20.7536C24.1933 17.4246 26.9013 14.7174 30.2295 14.7174C31.8424 14.7174 33.3576 15.3447 34.498 16.4851L36.2901 18.2771L38.0821 16.4851C39.2213 15.3447 40.7378 14.7174 42.3507 14.7174C45.6789 14.7174 48.3868 17.4246 48.3868 20.7536C48.3868 22.3657 47.7588 23.8817 46.6192 25.0221Z" fill="#F34970"/>
</svg>
