<svg width="50" height="50" viewBox="0 0 50 50" fill="none" xmlns="http://www.w3.org/2000/svg">
<g clip-path="url(#clip0)">
<path d="M50 32.3813L40.3356 30.77C42.1154 30.162 43.7508 29.163 45.1203 27.7934L46.3017 26.6129L36.2903 16.6016L35.109 17.7821C33.2098 19.6821 32.012 22.0888 31.6123 24.6944L27.467 13.295C27.9466 12.4669 28.2258 11.5089 28.2258 10.4839V9.67742H25.8065C24.9646 9.67742 24.1652 9.8621 23.4477 10.1944C23.471 10.0566 23.4832 9.91526 23.4824 9.77429C23.9348 9.32499 24.1935 8.71543 24.1935 8.06452C24.1935 7.41361 23.9348 6.80404 23.4824 6.35474C23.4848 5.71762 23.2363 5.10333 22.776 4.6434C22.3184 4.18544 21.708 3.93696 21.0733 3.93696C21.0709 3.93696 21.0678 3.93696 21.0646 3.93696C20.1668 3.03325 18.5429 3.03325 17.6451 3.93696C17.2985 3.91294 16.9879 4.00233 16.687 4.13149C16.459 3.45813 16.0767 2.83951 15.5588 2.3217L13.7097 0.47253L11.9999 2.1823C9.89045 0.774949 7.37659 0 4.83871 0H0V4.83871C0 7.37738 0.775737 9.89045 2.18151 12.0007L0.47253 13.7097L2.3217 15.5588C2.94111 16.1783 3.72905 16.6106 4.57567 16.8107C4.15787 17.2627 3.9346 17.8467 3.93696 18.4515C3.48452 18.9008 3.22581 19.5104 3.22581 20.1613C3.22581 20.8122 3.48452 21.4218 3.93696 21.8711C3.9346 22.5082 4.18307 23.1225 4.6434 23.5824C5.10096 24.0404 5.71132 24.2888 6.34608 24.2888H6.35474C7.25255 25.1926 8.87648 25.1926 9.77429 24.2888H9.82115C9.22103 25.1847 8.87097 26.2621 8.87097 27.4194V28.2258H11.2903C12.1846 28.2258 13.0308 28.0163 13.7829 27.6442L24.6952 31.6123C22.0896 32.012 19.6821 33.2098 17.7829 35.109L16.6016 36.2903L26.6129 46.3017L27.7942 45.1203C29.1638 43.7508 30.1628 42.1154 30.7708 40.3356L32.3813 50H44.9865L37.1082 37.1082L50 44.9865V32.3813ZM36.2494 18.9233L36.2903 18.8823L44.0209 26.6129L43.98 26.6539C41.9256 28.7082 39.1952 29.8387 36.2903 29.8387H35.4839V29.0323C35.4839 27.545 34.4679 26.3034 33.0976 25.9313C33.2606 23.2839 34.3573 20.8154 36.2494 18.9233ZM29.0323 33.871C28.1427 33.871 27.4194 33.1476 27.4194 32.2581C27.4194 31.3685 28.1427 30.6452 29.0323 30.6452H30.6452V29.0323C30.6452 28.1427 31.3685 27.4194 32.2581 27.4194C33.1476 27.4194 33.871 28.1427 33.871 29.0323V33.871H29.0323ZM25.8065 11.2903H26.5314C26.1565 13.1281 24.5283 14.5161 22.5806 14.5161H21.8557C22.2298 12.6784 23.8588 11.2903 25.8065 11.2903ZM12.1921 18.4515C12.1929 18.2897 12.1767 18.1298 12.146 17.9727C12.8485 18.5724 13.9251 18.709 14.7516 18.3113C14.5992 18.6323 14.5161 18.9863 14.5161 19.3548C14.5161 20.0057 14.7748 20.6153 15.2273 21.0646C15.2265 21.3064 15.2612 21.5458 15.3316 21.7742H14.5161C13.6742 21.7742 12.8749 21.9589 12.1574 22.2912C12.1806 22.1534 12.1929 22.012 12.1921 21.8711C12.6445 21.4218 12.9032 20.8122 12.9032 20.1613C12.9032 19.5104 12.6445 18.9008 12.1921 18.4515ZM16.8607 17.8195C16.8233 17.6533 16.8386 17.4848 16.9 17.3348C16.9808 17.2718 17.0572 17.204 17.1308 17.1316C17.204 17.0579 17.2718 16.9808 17.3348 16.9C17.4848 16.8378 17.6533 16.8225 17.8211 16.8607L18.3728 16.9831L18.6768 16.5063C18.9776 16.0337 19.734 16.0337 20.0345 16.5063L20.3389 16.9831L20.8902 16.8607C21.1662 16.7992 21.4434 16.88 21.6372 17.0741C21.8313 17.2686 21.9112 17.5466 21.851 17.8195L21.7273 18.3728L22.2058 18.6768C22.4397 18.8268 22.5806 19.08 22.5806 19.3548C22.5806 19.6297 22.4397 19.8829 22.2034 20.0329L21.725 20.3369L21.8482 20.8902C21.9089 21.1631 21.8297 21.4418 21.6348 21.6364C21.4411 21.8289 21.1623 21.9089 20.8878 21.849L20.3361 21.7265L20.0321 22.2034C19.7313 22.6759 18.9748 22.6759 18.674 22.2034L18.37 21.7265L17.8187 21.849C17.5443 21.9104 17.2655 21.8305 17.0717 21.6356C16.8776 21.4411 16.7977 21.1631 16.8579 20.8902L16.9816 20.3369L16.5031 20.0329C16.27 19.8829 16.129 19.6297 16.129 19.3548C16.129 19.08 16.27 18.8268 16.5063 18.6768L16.9847 18.3728L16.8607 17.8195ZM18.3121 12.667C19.1969 13.0926 20.3621 12.9001 21.0646 12.1929C21.08 12.1921 21.0945 12.1929 21.1115 12.1929C20.6259 12.9178 20.305 13.7613 20.1991 14.6693C19.6002 14.446 18.887 14.4775 18.3121 14.754C18.4653 14.4323 18.5484 14.0783 18.5484 13.7097C18.5484 13.3411 18.4653 12.9871 18.3121 12.667ZM16.8823 23.3611C17.1241 23.441 17.3781 23.4824 17.6372 23.4824H17.6459C18.5437 24.3861 20.1676 24.3861 21.0654 23.4824H21.0748C21.708 23.4824 22.3192 23.2347 22.7767 22.7767C23.2371 22.316 23.4855 21.7017 23.4832 21.0646C23.9348 20.6153 24.1935 20.0057 24.1935 19.3548C24.1935 18.7039 23.9348 18.0944 23.4824 17.6451C23.4848 17.0902 23.2969 16.5516 22.9429 16.1176C23.3749 16.0904 23.7927 16.0081 24.1935 15.8888V24.1935H16.6953C16.7768 23.9234 16.8418 23.6466 16.8823 23.3611ZM16.5063 7.38644L16.9847 7.08244L16.8615 6.52919C16.8008 6.2563 16.88 5.97751 17.0749 5.78298C17.2686 5.58964 17.5458 5.50813 17.8219 5.57034L18.3736 5.69281L18.6775 5.21595C18.9784 4.74342 19.7348 4.74342 20.0357 5.21595L20.3397 5.69281L20.891 5.57034C21.167 5.50892 21.4442 5.58964 21.6379 5.78377C21.8321 5.9783 21.912 6.2563 21.8518 6.52919L21.7281 7.08244L22.2066 7.38644C22.4397 7.53646 22.5806 7.78966 22.5806 8.06452C22.5806 8.33937 22.4397 8.59257 22.2034 8.7426L21.725 9.04659L21.8482 9.59985C21.9089 9.87273 21.8297 10.1515 21.6348 10.346C21.4411 10.5394 21.1623 10.6185 20.8878 10.5587L20.3361 10.4362L20.0321 10.9131C19.7313 11.3856 18.9748 11.3856 18.674 10.9131L18.37 10.4362L17.8187 10.5587C17.651 10.5953 17.4824 10.58 17.3324 10.5193C17.2702 10.4386 17.2017 10.3622 17.128 10.2886C17.0548 10.2153 16.9784 10.1476 16.8977 10.0854C16.8363 9.93456 16.8209 9.76602 16.8579 9.59985L16.9816 9.04659L16.5031 8.7426C16.27 8.59257 16.129 8.33937 16.129 8.06452C16.129 7.78966 16.27 7.53646 16.5063 7.38644ZM15.7297 11.2557C15.792 11.3364 15.8605 11.4128 15.9337 11.4864C16.0074 11.5597 16.0837 11.6274 16.1645 11.6896C16.2259 11.8404 16.2413 12.009 16.2038 12.1751L16.0806 12.7284L16.559 13.0324C16.7945 13.1816 16.9355 13.4348 16.9355 13.7097C16.9355 13.9845 16.7945 14.2377 16.5582 14.3878L16.0798 14.6918L16.2031 15.245C16.2405 15.4112 16.2251 15.5797 16.1637 15.7297C16.083 15.7927 16.0066 15.8605 15.9329 15.9329C15.8597 16.0066 15.792 16.0837 15.729 16.1645C15.5789 16.2259 15.4096 16.2413 15.2426 16.2038L14.691 16.0814L14.387 16.5582C14.0861 17.0308 13.3297 17.0308 13.0288 16.5582L12.7248 16.0814L12.1736 16.2038C11.8991 16.2653 11.6203 16.1853 11.4266 15.9904C11.2324 15.7959 11.1525 15.5179 11.2127 15.245L11.3364 14.6918L10.858 14.3878C10.6248 14.2377 10.4839 13.9845 10.4839 13.7097C10.4839 13.4348 10.6248 13.1816 10.8611 13.0316L11.3395 12.7276L11.2163 12.1743C11.1789 12.0082 11.1942 11.8396 11.2557 11.6896C11.3364 11.6266 11.4128 11.5589 11.4864 11.4864C11.5597 11.4128 11.6274 11.3356 11.6904 11.2549C11.8396 11.1927 12.0082 11.1773 12.1767 11.2155L12.7284 11.338L13.0324 10.8611C13.3332 10.3886 14.0897 10.3886 14.3905 10.8611L14.6945 11.338L15.2458 11.2155C15.4104 11.1781 15.5797 11.1935 15.7297 11.2557ZM5.21595 8.7426C4.97968 8.59257 4.83871 8.33937 4.83871 8.06452C4.83871 7.78966 4.97968 7.53646 5.21595 7.38644L5.69438 7.08244L5.57034 6.52919C5.5097 6.2563 5.58964 5.9783 5.78377 5.78298C5.97751 5.58964 6.25315 5.50813 6.53076 5.57034L7.08126 5.6936L7.38565 5.21713C7.6861 4.7442 8.44293 4.7442 8.74338 5.21713L9.04777 5.6936L9.59906 5.57113C9.87509 5.5097 10.1523 5.59043 10.346 5.78456C10.5402 5.97908 10.6201 6.25709 10.5599 6.52997L10.4362 7.08323L10.9147 7.38722C11.1494 7.53646 11.2903 7.78966 11.2903 8.06452C11.2903 8.33937 11.1494 8.59257 10.9131 8.7426L10.4346 9.04659L10.5579 9.59985C10.5953 9.76602 10.58 9.93456 10.5185 10.0846C10.4378 10.1476 10.3614 10.2153 10.2878 10.2878C10.2145 10.3614 10.1468 10.4386 10.0838 10.5193C9.93377 10.5807 9.76444 10.5953 9.59748 10.5587L9.0458 10.4362L8.74181 10.9131C8.44097 11.3856 7.68452 11.3856 7.38368 10.9131L7.08126 10.4354L6.52997 10.5579C6.25551 10.6193 5.97672 10.5394 5.78298 10.3445C5.58885 10.15 5.50891 9.87194 5.56916 9.59906L5.69281 9.0458L5.21595 8.7426ZM13.7097 2.75328L14.4185 3.46207C15.0017 4.04525 15.3226 4.82099 15.3226 5.64516H15.3316C15.2619 5.87355 15.2265 6.11297 15.2273 6.35474C14.7748 6.80404 14.5161 7.41361 14.5161 8.06452C14.5161 8.43309 14.5992 8.78709 14.7524 9.10723C14.676 9.07101 14.5969 9.03793 14.5161 9.00879V4.83871H12.9032V9.00879C12.8225 9.03793 12.7434 9.07022 12.667 9.10723C12.8201 8.78709 12.9032 8.43309 12.9032 8.06452C12.9032 7.41361 12.6445 6.80404 12.1921 6.35474C12.1929 6.11297 12.1582 5.87355 12.0877 5.64516H12.0968C12.0968 4.82099 12.4177 4.04525 13.0009 3.46207L13.7097 2.75328ZM1.6129 1.6129H4.83871C7.02652 1.6129 9.19504 2.27011 11.0249 3.46601C10.9119 3.6814 10.8095 3.90074 10.7323 4.1307C10.4339 4.00312 10.1114 3.93618 9.78295 3.93618C9.78059 3.93618 9.77744 3.93618 9.77429 3.93618C8.87648 3.03207 7.25255 3.03207 6.35474 3.93618C6.35159 3.93618 6.34844 3.93618 6.34529 3.93618C5.7121 3.93618 5.10096 4.18386 4.6434 4.64182C4.18307 5.10333 3.9346 5.71762 3.93696 6.35474C3.48452 6.80404 3.22581 7.41361 3.22581 8.06452C3.22581 8.71543 3.48452 9.32499 3.93696 9.77429C3.93539 10.1074 4.00312 10.4339 4.13306 10.7363C3.90389 10.8146 3.68377 10.9162 3.46916 11.0281C2.2709 9.1982 1.6129 7.02889 1.6129 4.83871V1.6129ZM3.46207 14.4185L2.75328 13.7097L3.46207 13.0009C4.03698 12.4268 4.83241 12.0968 5.64516 12.0968V12.0877C5.87001 12.1566 6.10627 12.1921 6.34608 12.1921H6.35474C6.80404 12.6445 7.41361 12.9032 8.06452 12.9032C8.4323 12.9032 8.78709 12.8201 9.10723 12.667C9.07022 12.7434 9.03793 12.8225 9.00879 12.9032H4.83871V14.5161H9.00879C9.12889 14.8548 9.32499 15.1627 9.58213 15.4194C9.58134 15.5813 9.59748 15.7412 9.6282 15.8983C9.19662 15.5297 8.6477 15.3226 8.06452 15.3226H5.64516C4.83241 15.3226 4.03698 14.9926 3.46207 14.4185ZM9.59827 22.6555L9.04659 22.533L8.7426 23.0099C8.44175 23.4824 7.68531 23.4824 7.38486 23.0099L7.08126 22.5322L6.52997 22.6547C6.25551 22.7153 5.97672 22.6362 5.78298 22.4412C5.58885 22.2467 5.50891 21.9687 5.56916 21.6958L5.69281 21.1426L5.21437 20.8386C4.97968 20.6893 4.83871 20.4361 4.83871 20.1613C4.83871 19.8864 4.97968 19.6332 5.21595 19.4832L5.69438 19.1792L5.57113 18.626C5.51049 18.3531 5.58964 18.0743 5.78456 17.8798C5.9783 17.6864 6.25394 17.6065 6.53155 17.6671L7.08323 17.7896L7.38722 17.3127C7.68807 16.8402 8.44451 16.8402 8.74535 17.3127L9.04935 17.7896L9.60063 17.6671C9.87667 17.6073 10.1539 17.6856 10.3476 17.8805C10.5418 18.0751 10.6217 18.3531 10.5614 18.626L10.4378 19.1792L10.9162 19.4832C11.1494 19.6332 11.2903 19.8864 11.2903 20.1613C11.2903 20.4361 11.1494 20.6893 10.9131 20.8394L10.4346 21.1434L10.5579 21.6966C10.6185 21.9695 10.5394 22.2483 10.3445 22.4428C10.1515 22.6354 9.87273 22.7153 9.59827 22.6555ZM10.5654 26.6129C10.9403 24.7752 12.5685 23.3871 14.5161 23.3871H15.2411C14.8662 25.2248 13.2379 26.6129 11.2903 26.6129H10.5654ZM15.916 25.8065H25.8065V15.1088C25.9695 14.9942 26.1282 14.8741 26.2782 14.7437L30.4936 26.3373C29.6154 26.9145 29.0323 27.9049 29.0323 29.0323C27.9049 29.0323 26.9145 29.6154 26.3373 30.4936L15.3494 26.4983C15.5565 26.2837 15.7443 26.0518 15.916 25.8065ZM26.6539 43.98L26.6129 44.0209L18.8823 36.2903L18.9233 36.2494C20.8154 34.3573 23.2839 33.2606 25.9313 33.0976C26.3034 34.4679 27.545 35.4839 29.0323 35.4839H29.8387V36.2903C29.8387 39.1952 28.7082 41.9256 26.6539 43.98ZM33.7477 48.3871L31.5969 35.4839H34.225L42.1103 48.3871H33.7477ZM48.3871 42.1103L35.4839 34.225V31.5969L48.3871 33.7469V42.1103Z" fill="#F34970"/>
<path d="M7.25781 7.25781H8.87072V8.87072H7.25781V7.25781Z" fill="#F34970"/>
<path d="M7.25781 19.3545H8.87072V20.9674H7.25781V19.3545Z" fill="#F34970"/>
<path d="M18.5488 7.25781H20.1617V8.87072H18.5488V7.25781Z" fill="#F34970"/>
<path d="M18.5488 18.5488H20.1617V20.1617H18.5488V18.5488Z" fill="#F34970"/>
<path d="M12.9033 12.9033H14.5162V14.5162H12.9033V12.9033Z" fill="#F34970"/>
</g>
<defs>
<clipPath id="clip0">
<rect width="50" height="50" fill="white"/>
</clipPath>
</defs>
</svg>
