<svg width="50" height="50" viewBox="0 0 50 50" fill="none" xmlns="http://www.w3.org/2000/svg">
<path d="M21.7744 37.9033H15.3228V39.5162H21.7744V37.9033Z" fill="#F34970"/>
<path d="M28.2257 41.1289H26.6128V42.7418H28.2257V41.1289Z" fill="#F34970"/>
<path d="M25.0001 41.1289H8.87109V42.7418H25.0001V41.1289Z" fill="#F34970"/>
<path d="M50 25.0476C50 23.6597 48.871 22.5306 47.4831 22.5306H47.3774C46.8048 22.5306 46.2444 22.7282 45.7992 23.0871L44.1355 24.4258C43.179 25.1952 41.7952 25.1274 40.9194 24.2637L33.9121 17.3516C32.4508 15.9113 30.6686 14.8556 28.7113 14.25C28.9008 13.4323 29.0323 12.4548 29.0323 11.2903C29.0323 6.97419 27.2589 5.15081 27.1831 5.075L26.7476 4.63952L21.7742 7.48145V3.22581C21.7742 1.44677 20.3274 0 18.5484 0C16.7694 0 15.3226 1.44677 15.3226 3.22581V7.48145L10.3492 4.63952L9.91371 5.075C9.8379 5.15081 8.06452 6.97419 8.06452 11.2903C8.06452 15.6065 9.8379 17.4298 9.91371 17.5056L10.3492 17.9411L15.3226 15.0992V15.7468C9.76694 17.1855 5.64516 22.2266 5.64516 28.2258V38.3315C5.64516 39.5274 4.75242 40.5573 3.56774 40.7258L2.175 40.925C0.935484 41.1024 0 42.1806 0 43.4331C0 44.8306 1.1371 45.9677 2.53468 45.9677H13.1476C13.8492 48.3395 16.0185 50 18.5484 50C21.0782 50 23.2476 48.3395 23.9492 45.9677H34.5621C35.9589 45.9677 37.096 44.8306 37.0968 43.4347C38.2984 43.2637 39.4089 42.7177 40.2815 41.8444C41.3476 40.7782 41.9355 39.3613 41.9355 37.8532C41.9355 36.8153 41.6508 35.8226 41.129 34.9556L49.2621 26.8274C49.7315 26.3589 50 25.7105 50 25.0476ZM21.7742 9.33871L26.3831 6.70484C26.7935 7.40242 27.4194 8.86452 27.4194 11.2903C27.4194 13.7194 26.7919 15.1815 26.3839 15.875L21.7742 13.2419V9.33871ZM16.9355 3.22581C16.9355 2.3371 17.6589 1.6129 18.5484 1.6129C19.4371 1.6129 20.1613 2.3371 20.1613 3.22581V8.06452H16.9355V3.22581ZM16.9355 9.67742H20.1613V12.0968H16.9355V9.67742ZM16.9355 13.7097H20.1613V15.4347C19.6315 15.3677 19.096 15.3226 18.5484 15.3226C18.0008 15.3226 17.4653 15.3677 16.9355 15.4347V13.7097ZM10.7137 15.875C10.3032 15.1782 9.67742 13.7161 9.67742 11.2903C9.67742 8.86129 10.3048 7.39919 10.7129 6.70484L15.3226 9.33871V13.2411L10.7137 15.875ZM18.5484 48.3871C16.9121 48.3871 15.4976 47.4089 14.871 45.9677H22.2258C21.5992 47.4089 20.1847 48.3871 18.5484 48.3871ZM34.5621 44.3548H2.53468C2.02661 44.3548 1.6129 43.9411 1.6129 43.4331C1.6129 42.9782 1.95242 42.5855 2.40323 42.5218L3.79597 42.3226C5.76935 42.0411 7.25806 40.325 7.25806 38.3315V28.2258C7.25806 22 12.3226 16.9355 18.5484 16.9355C24.7742 16.9355 29.8387 22 29.8387 28.2258V38.3315C29.8387 40.325 31.3274 42.0411 33.3008 42.3226L34.6927 42.5218C35.1444 42.5855 35.4839 42.9774 35.4839 43.4331C35.4839 43.9411 35.0702 44.3548 34.5621 44.3548ZM39.1411 40.704C38.4387 41.4065 37.5194 41.8016 36.5355 41.8613C36.1823 41.4185 35.6855 41.0992 35.1097 40.9702L39.9323 36.1508C40.1798 36.679 40.3226 37.2532 40.3226 37.8532C40.3226 38.9298 39.9024 39.9427 39.1411 40.704ZM48.1226 25.6871L33.1613 40.6379C32.571 40.4556 32.0815 40.0548 31.7798 39.5347L41.825 29.7129L40.6976 28.5597L31.4516 37.6V28.2258C31.4516 22.2266 27.3298 17.1855 21.7742 15.7476V15.1L26.7476 17.9419L27.1831 17.5065C27.2234 17.4661 27.7435 16.9258 28.2218 15.7847C29.9379 16.3137 31.5 17.2379 32.7798 18.4992L39.7871 25.4113C41.2468 26.8492 43.55 26.9661 45.1468 25.6823L46.8105 24.3427C46.9702 24.2145 47.1718 24.1435 47.3774 24.1435H47.4831C47.9815 24.1435 48.3871 24.5492 48.3871 25.0476C48.3871 25.2855 48.2911 25.5185 48.1226 25.6871Z" fill="#F34970"/>
</svg>
