<svg width="50" height="50" viewBox="0 0 50 50" fill="none" xmlns="http://www.w3.org/2000/svg">
<g clip-path="url(#clip0)">
<path d="M18.8468 17.6129L15.7371 15.8855C15.4815 15.7427 15.3226 15.4734 15.3226 15.1798V6.45161H16.9355V2.41935C16.9355 1.08548 15.85 0 14.5161 0H8.06452C6.73065 0 5.64516 1.08548 5.64516 2.41935V6.45161H7.25806V15.1798C7.25806 15.4726 7.09919 15.7427 6.84355 15.8847L3.73387 17.6129C1.43065 18.8919 0 21.3226 0 23.9573V47.5806C0 48.9145 1.08548 50 2.41935 50H20.1613C21.4952 50 22.5806 48.9145 22.5806 47.5806V23.9573C22.5806 21.3226 21.15 18.8919 18.8468 17.6129ZM7.25806 2.41935C7.25806 1.97419 7.61935 1.6129 8.06452 1.6129H14.5161C14.9613 1.6129 15.3226 1.97419 15.3226 2.41935V4.83871H13.7097V3.22581H12.0968V4.83871H10.4839V3.22581H8.87097V4.83871H7.25806V2.41935ZM1.6129 30.6452H5.31371C5.00968 31.3927 4.83871 32.2089 4.83871 33.0645C4.83871 33.9202 5.00968 34.7363 5.31371 35.4839H1.6129V30.6452ZM20.9677 47.5806C20.9677 48.0258 20.6065 48.3871 20.1613 48.3871H2.41935C1.97419 48.3871 1.6129 48.0258 1.6129 47.5806V42.7419H20.9677V47.5806ZM20.9677 41.129H1.6129V37.0968H6.2621C7.44516 38.5694 9.25806 39.5161 11.2903 39.5161C13.3226 39.5161 15.1347 38.5694 16.3185 37.0968H20.9677V41.129ZM6.45161 33.0645C6.45161 30.396 8.62177 28.2258 11.2903 28.2258C13.9589 28.2258 16.129 30.396 16.129 33.0645C16.129 35.7331 13.9589 37.9032 11.2903 37.9032C8.62177 37.9032 6.45161 35.7331 6.45161 33.0645ZM20.9677 35.4839H17.2669C17.571 34.7363 17.7419 33.9202 17.7419 33.0645C17.7419 32.2089 17.571 31.3927 17.2669 30.6452H20.9677V35.4839ZM20.9677 29.0323H16.3185C15.1347 27.5597 13.3226 26.6129 11.2903 26.6129C9.25806 26.6129 7.44516 27.5597 6.2621 29.0323H1.6129V25H20.9677V29.0323ZM1.65161 23.3871C1.8371 21.5637 2.89355 19.9242 4.51694 19.0226L7.62661 17.2944C8.39435 16.8685 8.87097 16.0581 8.87097 15.1798V6.45161H13.7097V15.1798C13.7097 16.0581 14.1863 16.8685 14.954 17.2944L18.0637 19.0226C19.6863 19.9242 20.7435 21.5637 20.929 23.3871H1.65161Z" fill="#F34970"/>
<path d="M46.6907 35.4843H45.0472C44.4464 35.4843 43.8577 35.6472 43.3448 35.9561L41.1286 37.286V36.6529C45.2335 32.9231 47.5802 27.6311 47.5802 22.0739V14.5166H29.8383V22.0731C29.8383 27.6311 32.1851 32.9222 36.2899 36.6521V37.2852L34.0746 35.9553C33.5601 35.6472 32.9722 35.4843 32.3714 35.4843H30.7278C28.9036 35.4843 27.4189 36.969 27.4189 38.7932V41.8537C27.4189 43.6771 28.9036 45.1618 30.727 45.1618H32.3706C32.9714 45.1618 33.5601 44.9989 34.073 44.69L36.2899 43.3601V48.3876H30.6448V50.0005H46.7738V48.3876H41.1286V43.3601L43.3439 44.69C43.8585 44.9989 44.4464 45.1618 45.0472 45.1618H46.6907C48.5149 45.1618 49.9996 43.6771 49.9996 41.8529V38.7924C49.9996 36.969 48.5149 35.4843 46.6907 35.4843ZM36.2899 39.5166H33.0641V41.1295H36.2899V41.4787L33.2431 43.3069C32.981 43.465 32.6794 43.5489 32.3714 43.5489H30.7278C29.7923 43.5489 29.0318 42.7884 29.0318 41.8529V38.7924C29.0318 37.8577 29.7923 37.0972 30.727 37.0972H32.3706C32.6786 37.0972 32.9802 37.1811 33.2431 37.3392L36.2899 39.1666V39.5166ZM31.4512 16.1295H45.9673V21.7747H31.4512V16.1295ZM39.5157 48.3876H37.9028V42.7424H39.5157V48.3876ZM39.5157 41.1295H37.9028V39.5166H39.5157V41.1295ZM39.7915 35.6835L39.5157 35.9247V37.9037H37.9028V35.9247L37.627 35.6835C34.0335 32.54 31.8496 28.115 31.5052 23.3876H45.9141C45.5697 28.115 43.3859 32.54 39.7915 35.6835ZM48.3867 41.8529C48.3867 42.7884 47.6262 43.5489 46.6907 43.5489H45.0472C44.7391 43.5489 44.4375 43.465 44.1746 43.3069L41.1286 41.4795V41.1295H44.3544V39.5166H41.1286V39.1674L44.1754 37.3392C44.4375 37.1811 44.7391 37.0972 45.0472 37.0972H46.6907C47.6262 37.0972 48.3867 37.8577 48.3867 38.7932V41.8529Z" fill="#F34970"/>
<path d="M41.129 25H33.0645V26.6129H41.129V25Z" fill="#F34970"/>
<path d="M44.3551 25H42.7422V26.6129H44.3551V25Z" fill="#F34970"/>
</g>
<defs>
<clipPath id="clip0">
<rect width="50" height="50" fill="white"/>
</clipPath>
</defs>
</svg>
