<svg width="50" height="50" viewBox="0 0 50 50" fill="none" xmlns="http://www.w3.org/2000/svg">
<path d="M48.8556 0.704007C48.7524 0.751588 38.3774 5.46852 25 5.46852C11.6419 5.46852 1.24758 0.751588 1.14435 0.703201L0 0.176588V17.0927L11.0427 6.04997L15.8815 16.5338L25 7.4153L34.1185 16.5338L38.9573 6.04997L50 17.0927V0.175781L48.8556 0.704007ZM1.6129 13.1992V2.65481C3.08226 3.24594 5.88226 4.27256 9.62419 5.18788L1.6129 13.1992ZM12.7368 5.87165C15.793 6.46802 19.2902 6.93102 23.0839 7.05088L16.3766 13.7581L12.7368 5.87165ZM33.6234 13.758L26.9161 7.05078C30.7098 6.93092 34.207 6.46802 37.2632 5.87155L33.6234 13.758ZM48.3871 13.1992L40.3758 5.18788C44.1177 4.27256 46.9177 3.24594 48.3871 2.65481V13.1992Z" fill="#F34970"/>
<path d="M45.1615 32.4851C45.1615 30.9286 43.8954 29.6625 42.3389 29.6625C39.9064 29.6625 37.6132 30.9137 36.2905 32.9434C34.9678 30.9137 32.6746 29.6625 30.2421 29.6625C29.4529 29.6625 28.7387 29.9884 28.226 30.5123V25.6302H23.9838C24.6183 24.8628 25.0002 23.879 25.0002 22.8077C25.0002 20.3617 23.0107 18.3722 20.5647 18.3722C18.0462 18.3722 15.8195 19.977 15.0228 22.3665L14.5163 23.8856L14.0099 22.3664C13.2131 19.9769 10.9865 18.3721 8.46793 18.3721C6.02196 18.3721 4.03245 20.3616 4.03245 22.8076C4.03245 23.8789 4.4142 24.8627 5.04888 25.6301H0.806641V32.0817H2.41954V49.8237H25.8066H26.6131H47.5808V38.5334H49.1937V33.6947H44.8886C45.0634 33.3279 45.1615 32.9177 45.1615 32.4851ZM42.3389 31.2754C43.0058 31.2754 43.5486 31.8181 43.5486 32.4851C43.5486 33.152 43.0058 33.6948 42.3389 33.6948H37.7284C38.7671 32.1939 40.5018 31.2754 42.3389 31.2754ZM30.2421 31.2754C32.0792 31.2754 33.8139 32.1939 34.8526 33.6948H30.2421C29.5752 33.6948 29.0324 33.152 29.0324 32.4851C29.0324 31.8181 29.5752 31.2754 30.2421 31.2754ZM27.6924 33.6948H26.6131V32.0819H27.4488C27.4298 32.2136 27.4195 32.3482 27.4195 32.4851C27.4195 32.9177 27.5176 33.3279 27.6924 33.6948ZM20.5647 25.6302H16.7426C17.4347 24.1649 18.9126 23.2109 20.5647 23.2109C21.4896 23.2109 22.3501 23.6627 22.8798 24.4196C22.3692 25.1507 21.5222 25.6302 20.5647 25.6302ZM16.5534 22.8762C17.13 21.1472 18.7413 19.9851 20.5647 19.9851C22.0536 19.9851 23.276 21.1439 23.3793 22.6069C22.5959 21.963 21.6065 21.598 20.5647 21.598C18.9578 21.598 17.4705 22.252 16.397 23.3457L16.5534 22.8762ZM8.46793 19.9851C10.2913 19.9851 11.9026 21.1472 12.4792 22.8762L12.6356 23.3453C11.5619 22.2519 10.0747 21.598 8.46793 21.598C7.426 21.598 6.43678 21.963 5.65321 22.6073C5.75644 21.144 6.97892 19.9851 8.46793 19.9851ZM6.15311 24.42C6.68285 23.6625 7.54313 23.2109 8.46793 23.2109C10.1198 23.2109 11.5976 24.1646 12.2897 25.6302H8.46793C7.51067 25.6302 6.6637 25.1509 6.15311 24.42ZM2.41954 27.2431H8.46793H13.397H15.6357H20.5647H26.6131V30.4689H23.3873V32.0819H25.0002V33.6948V35.3077V36.9206V37.727H16.9357V32.0819H21.7744V30.4689H2.41954V27.2431ZM34.3445 38.5335L44.022 48.2109H41.4625L31.7851 38.5335H34.3445ZM29.504 38.5335L39.1814 48.2109H36.6212L26.9437 38.5335H29.504ZM15.3228 48.2109H13.7099V40.9528H4.03245V39.3399H13.7099V32.0819H15.3228V39.3399H25.0002V40.9528H15.3228V48.2109ZM26.6131 40.4837L34.3403 48.2109H31.7853L26.6131 43.0387V40.4837ZM12.097 32.0819V37.727H4.03245V32.0819H12.097ZM4.03245 42.5657H12.097V48.2109H4.03245V42.5657ZM16.9357 48.2109V42.5657H25.0002V48.2109H16.9357ZM26.6131 45.3197L29.5043 48.2109H26.6131V45.3197ZM45.9679 43.0385L44.9255 41.9961L43.785 43.1366L45.9679 45.3196V47.8759L36.6255 38.5335H39.1826L42.6364 41.9872L43.7769 40.8467L41.4636 38.5334H45.9679V43.0385ZM47.5808 36.9206H26.6131V35.3077H30.2421H34.8663H37.7147H42.3389H47.5808V36.9206Z" fill="#F34970"/>
</svg>
