<svg width="50" height="50" viewBox="0 0 50 50" fill="none" xmlns="http://www.w3.org/2000/svg">
<path d="M14.2195 30.3841C14.219 30.3832 14.214 30.3745 14.2134 30.3736C13.9291 29.8875 13.3072 29.7276 12.8209 30.0111C12.3345 30.2946 12.172 30.9225 12.4548 31.4092C12.4553 31.4101 12.4604 31.4188 12.4609 31.4198C12.6501 31.7432 12.9888 31.9222 13.3376 31.9222C13.5129 31.9222 13.6907 31.8771 13.8534 31.7822C14.3399 31.4987 14.5023 30.8709 14.2195 30.3841Z" fill="#F34970"/>
<path d="M31.9945 23.8196C31.9358 23.2591 31.434 22.8525 30.8735 22.9111C29.8331 23.0199 28.815 22.6595 28.0779 21.9224C27.3408 21.1853 26.9804 20.1662 27.0892 19.1267C27.1479 18.5662 26.7412 18.0643 26.1806 18.0057C25.6202 17.9467 25.1183 18.3539 25.0596 18.9143C24.8865 20.5688 25.4606 22.1911 26.635 23.3655C27.6717 24.4023 29.0575 24.9711 30.5063 24.9711C30.6987 24.9711 30.8922 24.9611 31.0859 24.9407C31.6463 24.8821 32.0531 24.3801 31.9945 23.8196Z" fill="#F34970"/>
<path d="M31.7703 16.4768C31.7117 15.9164 31.2115 15.5084 30.6493 15.5682C30.3411 15.6004 30.0382 15.4936 29.8194 15.2747C29.6006 15.0561 29.4938 14.7536 29.526 14.4449C29.5847 13.8844 29.1779 13.3825 28.6174 13.3239C28.0558 13.2656 27.555 13.6721 27.4964 14.2325C27.3997 15.1562 27.7205 16.0621 28.3763 16.7179C28.9554 17.2971 29.7291 17.6149 30.5383 17.6148C30.6455 17.6148 30.7537 17.6093 30.8617 17.598C31.4221 17.5392 31.8289 17.0373 31.7703 16.4768Z" fill="#F34970"/>
<path d="M36.6755 21.3821C36.6169 20.8218 36.1153 20.4146 35.5545 20.4735C35.2456 20.5057 34.9434 20.3989 34.7245 20.18C34.5059 19.9614 34.3991 19.659 34.4313 19.3503C34.4901 18.7897 34.0831 18.2879 33.5227 18.2293C32.9606 18.1705 32.4603 18.5774 32.4017 19.1379C32.305 20.0615 32.6258 20.9675 33.2815 21.623C33.8606 22.2022 34.6345 22.5201 35.4436 22.5201C35.5508 22.5201 35.6588 22.5145 35.7669 22.5032C36.3274 22.4446 36.7342 21.9427 36.6755 21.3821Z" fill="#F34970"/>
<path d="M41.3695 8.63027C41.3657 8.62637 41.3618 8.62275 41.3579 8.61895L41.358 8.61885C41.3541 8.61494 41.3501 8.61152 41.3463 8.60772C38.8692 6.14258 35.5821 4.78516 32.0863 4.78516C28.5796 4.78516 25.2826 6.15078 22.8029 8.63037C17.6843 13.7491 17.6843 22.078 22.8029 27.1969C24.202 28.5959 25.8612 29.64 27.6715 30.2847C23.9519 30.0027 20.4933 28.4192 17.8279 25.7538C17.4295 25.3557 16.7835 25.3555 16.3848 25.7538C15.9863 26.1522 15.9863 26.7984 16.3848 27.197C19.7215 30.5338 24.1581 32.3715 28.8771 32.3714C33.566 32.3713 37.9756 30.5563 41.3051 27.2598C41.3264 27.2387 41.3482 27.2182 41.3694 27.1969L41.3696 27.1967C46.4883 22.0779 46.4883 13.749 41.3695 8.63027ZM39.9264 25.7538C39.8608 25.8193 39.7943 25.8833 39.728 25.9475C37.658 27.9191 34.9553 29.0014 32.0863 29.0014C29.1247 29.0014 26.3403 27.8481 24.2461 25.7539C19.923 21.4307 19.923 14.3965 24.2461 10.0735C26.3402 7.97939 29.1246 6.82607 32.0863 6.82607C33.2513 6.82607 34.3884 7.00527 35.4673 7.34912C34.7387 7.62402 34.07 8.05195 33.5029 8.61904C32.6251 9.49678 32.1417 10.6641 32.1418 11.9055C32.1418 13.1469 32.6253 14.3141 33.5031 15.1917C34.2317 15.9205 35.1472 16.3656 36.0812 16.4453C36.1834 16.4541 36.2849 16.4584 36.3855 16.4584C37.2901 16.4584 38.1323 16.1095 38.7831 15.4587C40.1308 14.1109 40.1721 12.4106 38.8885 11.1271C38.4899 10.7287 37.8439 10.7287 37.4453 11.1271C37.0469 11.5255 37.0469 12.1717 37.4453 12.5702C37.6629 12.7877 38.1153 13.2402 37.34 14.0157C37.041 14.3146 36.6756 14.4482 36.2547 14.4119C35.7996 14.3731 35.3348 14.1376 34.9461 13.7487C33.9297 12.7323 33.9296 11.0785 34.9459 10.0622C36.3124 8.6957 38.5333 8.69248 39.9041 10.0518C39.9114 10.0591 39.919 10.0661 39.9265 10.0735C44.2494 14.3966 44.2494 21.4307 39.9264 25.7538Z" fill="#F34970"/>
<path d="M8.61597 36.0167L8.59536 35.9809C8.30679 35.497 7.67895 35.3364 7.19516 35.625C6.71108 35.9135 6.55151 36.5378 6.84008 37.0218C7.02788 37.3536 7.37339 37.5398 7.72895 37.5398C7.89927 37.5398 8.07202 37.497 8.23071 37.4073C8.72104 37.1297 8.8936 36.5071 8.61597 36.0167Z" fill="#F34970"/>
<path d="M44.8739 5.12617C41.5681 1.82051 37.173 0 32.4981 0C27.8231 0 23.4278 1.82061 20.122 5.12637L5.12645 20.1219C-1.69767 26.9461 -1.69777 38.0496 5.12626 44.8738C8.43202 48.1795 12.8271 50 17.5021 50C22.1772 50 26.5724 48.1794 29.8783 44.8736L44.8738 29.8781C51.6978 23.054 51.6979 11.9503 44.8739 5.12617ZM43.4306 28.435L28.435 43.4305C25.5147 46.3508 21.632 47.9592 17.5021 47.9592C13.3723 47.9592 9.48964 46.3509 6.56942 43.4308C1.05887 37.9202 0.586707 29.2514 5.15048 23.198C5.05214 23.5368 4.96161 23.8784 4.88348 24.2239C4.16932 27.3833 4.3329 30.6746 5.35663 33.742C5.49921 34.1693 5.89735 34.4396 6.3244 34.4396C6.43143 34.4396 6.54042 34.4227 6.64755 34.3868C7.18202 34.2085 7.47079 33.6305 7.29237 33.0959C5.43719 27.5372 6.80067 21.5214 10.8444 17.3145C10.7132 17.7407 10.5967 18.1723 10.4977 18.6096C9.78358 21.7689 9.94716 25.0603 10.9709 28.1277C11.1135 28.5552 11.5115 28.8254 11.9387 28.8254C12.0457 28.8254 12.1546 28.8084 12.2618 28.7726C12.7963 28.5942 13.085 28.0162 12.9066 27.4816C11.0179 21.8222 12.4633 15.6876 16.679 11.4721C16.6746 11.4706 16.671 11.469 16.6668 11.4676L21.5649 6.56943C24.4854 3.64922 28.3682 2.04082 32.4982 2.04082C36.6281 2.04082 40.5106 3.64912 43.4309 6.56934C49.4592 12.5977 49.4591 22.4066 43.4306 28.435Z" fill="#F34970"/>
</svg>
