<svg width="50" height="50" viewBox="0 0 50 50" fill="none" xmlns="http://www.w3.org/2000/svg">
<path d="M32.377 22.1311C31.699 22.1311 31.037 22.1967 30.3843 22.29C29.5182 20.3148 28.2138 18.6023 26.6105 17.2499C26.4696 15.3132 25.3466 13.6018 23.5891 12.7221C23.2157 12.5352 22.8771 12.2918 22.5818 11.9956L22.0607 11.4753L22.3008 11.2352C22.9844 10.5516 23.3606 9.64349 23.3606 8.67693V8.53605C23.3606 6.5409 21.7377 4.91797 19.7425 4.91797H19.6016C18.8884 4.91797 18.2064 5.12289 17.6229 5.50551C17.0394 5.12289 16.3574 4.91797 15.6442 4.91797H15.5033C13.5081 4.91797 11.8852 6.5409 11.8852 8.53605V8.67693C11.8852 9.64349 12.2614 10.5516 12.945 11.2352L13.1851 11.4753L12.664 11.9968C12.3687 12.2918 12.0301 12.536 11.6567 12.7229C9.90246 13.5998 8.78101 15.3056 8.63613 17.2375C5.61479 19.7949 3.68848 23.6091 3.68848 27.8688C3.68848 35.5524 9.93928 41.8032 17.6229 41.8032C18.3009 41.8032 18.9629 41.7376 19.6157 41.6443C21.8173 46.6656 26.8582 49.9999 32.377 49.9999C40.0606 49.9999 46.3114 43.7491 46.3114 36.0655C46.3114 28.3819 40.0606 22.1311 32.377 22.1311ZM21.4231 13.1555C21.8425 13.5762 22.3252 13.9236 22.8563 14.1893C23.5747 14.5483 24.1379 15.1082 24.5089 15.7778C22.9688 14.8981 21.2606 14.3114 19.4696 14.068L20.9016 12.6344L21.4231 13.1555ZM13.5245 8.53605C13.5245 7.44502 14.4123 6.55731 15.5033 6.55731H15.6442C16.1729 6.55731 16.6696 6.76303 17.0434 7.13685L17.6229 7.71638L18.2024 7.13685C18.5763 6.76303 19.0737 6.55731 19.6016 6.55731H19.7425C20.8336 6.55731 21.7213 7.44502 21.7213 8.53605V8.67693C21.7213 9.20564 21.5155 9.70232 21.1417 10.0761L17.6229 13.595L14.1041 10.0761C13.7303 9.70232 13.5245 9.20484 13.5245 8.67693V8.53605ZM12.3895 14.1893C12.9206 13.9236 13.4033 13.5762 13.8227 13.1555L14.3442 12.6344L15.7802 14.0704C13.968 14.3114 12.2662 14.8965 10.7425 15.7662C11.114 15.1014 11.6755 14.5459 12.3895 14.1893ZM5.32782 27.8688C5.32782 21.0893 10.8434 15.5737 17.6229 15.5737C22.3768 15.5737 26.7354 18.3729 28.7465 22.6278C28.209 22.7731 27.6827 22.9436 27.1728 23.1493C25.3826 19.5244 21.7033 17.2131 17.6229 17.2131C11.7475 17.2131 6.96717 21.9934 6.96717 27.8688C6.96717 33.7442 11.7475 38.5245 17.6229 38.5245C23.4379 38.5245 28.1722 33.841 28.2694 28.0493C28.7845 27.7843 29.326 27.5678 29.8916 27.4057C29.8976 27.5598 29.918 27.7147 29.918 27.8688C29.918 34.6483 24.4024 40.1639 17.6229 40.1639C10.8434 40.1639 5.32782 34.6483 5.32782 27.8688ZM25.6908 23.8457C21.3755 26.2162 18.4426 30.8041 18.4426 36.0655C18.4426 36.3261 18.4722 36.5818 18.4862 36.8416C18.2016 36.8688 17.9147 36.8852 17.6229 36.8852C12.6516 36.8852 8.60651 32.8401 8.60651 27.8688C8.60651 22.8975 12.6516 18.8524 17.6229 18.8524C21.0649 18.8524 24.1703 20.7959 25.6908 23.8457ZM23.4731 34.7163C23.8033 32.5279 24.9171 30.5952 26.5268 29.218C26.1966 31.4064 25.0828 33.3391 23.4731 34.7163ZM31.5137 27.0927C31.7983 27.0655 32.086 27.0491 32.377 27.0491C37.3483 27.0491 41.3934 31.0942 41.3934 36.0655C41.3934 41.0368 37.3483 45.0819 32.377 45.0819C28.9162 45.0819 25.8252 43.1452 24.3072 40.0902C28.6236 37.7197 31.5573 33.131 31.5573 27.8688C31.5573 27.6106 31.5277 27.3525 31.5137 27.0927ZM32.377 48.3606C27.6231 48.3606 23.2646 45.5614 21.2534 41.3065C21.7885 41.1612 22.314 40.9915 22.8219 40.7866C24.6089 44.4179 28.2746 46.7212 32.377 46.7212C38.2524 46.7212 43.0327 41.9409 43.0327 36.0655C43.0327 30.1901 38.2524 25.4098 32.377 25.4098C26.5621 25.4098 21.8277 30.0933 21.7305 35.885C21.2154 36.15 20.6739 36.3665 20.1071 36.5286C20.1015 36.3737 20.0819 36.2212 20.0819 36.0655C20.0819 29.286 25.5975 23.7704 32.377 23.7704C39.1565 23.7704 44.6721 29.286 44.6721 36.0655C44.6721 42.845 39.1565 48.3606 32.377 48.3606Z" fill="#F34970"/>
<path d="M16.8037 0H18.4431V2.45902H16.8037V0Z" fill="#F34970"/>
<path d="M12.4062 2.50029L13.5657 1.34082L15.3051 3.08022L14.1457 4.23969L12.4062 2.50029Z" fill="#F34970"/>
<path d="M19.9414 3.08022L21.6808 1.34082L22.8399 2.49989L21.1009 4.23929L19.9414 3.08022Z" fill="#F34970"/>
<path d="M25 7.37695H27.459V9.0163H25V7.37695Z" fill="#F34970"/>
<path d="M7.78711 7.37695H10.2461V9.0163H7.78711V7.37695Z" fill="#F34970"/>
</svg>
