<svg width="50" height="50" viewBox="0 0 50 50" fill="none" xmlns="http://www.w3.org/2000/svg">
<g clip-path="url(#clip0)">
<path d="M35.0703 29.8387H40.3227L40.3203 26.0081L39.7397 25.8379C39.6905 25.8234 35.0026 24.3871 31.934 18.5484H35.484L35.4824 14.8258L35.0397 14.6024C34.9945 14.5798 30.6324 12.3048 26.8614 5.85242C27.684 5.26613 28.226 4.31048 28.226 3.22581C28.226 1.44677 26.7792 0 25.0002 0C23.2211 0 21.7743 1.44677 21.7743 3.22581C21.7743 4.31048 22.3163 5.26613 23.1389 5.85161C19.3671 12.3048 15.0058 14.579 14.9623 14.6016L14.5163 14.8242V18.5484H18.0655C14.9969 24.3871 10.3098 25.8234 10.2623 25.8371L9.67758 26.0048V29.8387H14.9292C11.7131 37.3266 5.455 39.5363 5.39048 39.5581L4.83887 39.7411V43.5484H20.9679V50H29.0324V43.5484H45.1614V39.7411L44.6098 39.5573C44.5437 39.5355 38.2961 37.3589 35.0703 29.8387ZM25.0002 1.6129C25.8889 1.6129 26.6131 2.3371 26.6131 3.22581C26.6131 4.11452 25.8889 4.83871 25.0002 4.83871C24.1106 4.83871 23.3873 4.11452 23.3873 3.22581C23.3873 2.3371 24.1106 1.6129 25.0002 1.6129ZM16.1292 16.9355V15.7944C17.4268 15.0169 21.2864 12.3403 24.6768 6.41935C24.7848 6.42984 24.8897 6.45161 25.0002 6.45161C25.1106 6.45161 25.2155 6.42984 25.3235 6.41935C28.7139 12.3403 32.5727 15.0169 33.8711 15.7944V16.9355H31.1687H18.8316H16.1292ZM11.2905 28.2258V27.1815C12.8429 26.5613 17.0994 24.4016 19.8727 18.5484H30.1284C32.9018 24.4016 37.1582 26.5621 38.7106 27.1815V28.2258H11.2905ZM27.4195 48.3871H22.5808V43.5484H27.4195V48.3871ZM43.5485 41.9355H6.45177V40.8742C8.22919 40.1202 13.7727 37.2347 16.6735 29.8387H33.326C36.2276 37.2347 41.7711 40.1194 43.5485 40.8742V41.9355Z" fill="#F34970"/>
<path d="M30.6453 14.5158C29.3033 14.5158 27.792 14.119 26.1549 13.3359L25.459 14.7916C27.3154 15.6787 29.0606 16.1287 30.6453 16.1287V14.5158Z" fill="#F34970"/>
<path d="M24.6112 12.5011C23.683 11.939 23.0886 11.4697 23.0822 11.4648L22.0781 12.7269C22.1055 12.7479 22.7523 13.2608 23.7757 13.881L24.6112 12.5011Z" fill="#F34970"/>
<path d="M27.8135 22.8353L28.6369 24.2232C30.3054 23.2321 31.174 22.3845 31.2103 22.3482L30.0804 21.1982C30.0723 21.2063 29.2982 21.9555 27.8135 22.8353Z" fill="#F34970"/>
<path d="M16.1289 25.8057V27.4186C20.0805 27.4186 23.7241 26.642 26.9579 25.1106L26.2684 23.6533C23.2515 25.0815 19.8402 25.8057 16.1289 25.8057Z" fill="#F34970"/>
<path d="M19.7656 35.8008C24.0922 38.2307 30.8906 41.1282 38.7092 41.1282V39.5153C30.8455 39.5153 23.96 36.3065 20.5559 34.3936L19.7656 35.8008Z" fill="#F34970"/>
<path d="M16.4521 33.711C16.4763 33.7288 17.0659 34.1683 18.1199 34.828L18.9755 33.4611C17.9844 32.8409 17.4231 32.424 17.4175 32.4199L16.4521 33.711Z" fill="#F34970"/>
<path d="M6.45161 15.3226C6.45161 13.8234 5.41935 12.5718 4.03226 12.2113V0H2.41935V12.2113C1.03145 12.5718 0 13.8234 0 15.3226C0 17.1016 1.44677 18.5484 3.22581 18.5484C5.00484 18.5484 6.45161 17.1016 6.45161 15.3226ZM3.22581 16.9355C2.33629 16.9355 1.6129 16.2121 1.6129 15.3226C1.6129 14.4331 2.33629 13.7097 3.22581 13.7097C4.11452 13.7097 4.83871 14.4331 4.83871 15.3226C4.83871 16.2121 4.11452 16.9355 3.22581 16.9355Z" fill="#F34970"/>
<path d="M12.9035 10.4839C14.6826 10.4839 16.1293 9.0371 16.1293 7.25806C16.1293 5.75887 15.0971 4.50726 13.71 4.14677V0H12.0971V4.14677C10.7092 4.50726 9.67773 5.75887 9.67773 7.25806C9.67773 9.0371 11.1245 10.4839 12.9035 10.4839ZM12.9035 5.64516C13.7923 5.64516 14.5164 6.36935 14.5164 7.25806C14.5164 8.14677 13.7923 8.87097 12.9035 8.87097C12.014 8.87097 11.2906 8.14677 11.2906 7.25806C11.2906 6.36935 12.014 5.64516 12.9035 5.64516Z" fill="#F34970"/>
<path d="M47.5811 6.56613V0H45.9682V6.56613C44.5803 6.92661 43.5488 8.17823 43.5488 9.67742C43.5488 11.4565 44.9956 12.9032 46.7746 12.9032C48.5537 12.9032 50.0004 11.4565 50.0004 9.67742C50.0004 8.17823 48.9682 6.92661 47.5811 6.56613ZM46.7746 11.2903C45.8851 11.2903 45.1617 10.5661 45.1617 9.67742C45.1617 8.78871 45.8851 8.06452 46.7746 8.06452C47.6633 8.06452 48.3875 8.78871 48.3875 9.67742C48.3875 10.5661 47.6633 11.2903 46.7746 11.2903Z" fill="#F34970"/>
<path d="M40.3225 23.3871C42.1015 23.3871 43.5483 21.9403 43.5483 20.1613C43.5483 18.6621 42.516 17.4105 41.1289 17.05V0H39.516V17.05C38.1281 17.4105 37.0967 18.6621 37.0967 20.1613C37.0967 21.9403 38.5435 23.3871 40.3225 23.3871ZM40.3225 18.5484C41.2112 18.5484 41.9354 19.2718 41.9354 20.1613C41.9354 21.0508 41.2112 21.7742 40.3225 21.7742C39.433 21.7742 38.7096 21.0508 38.7096 20.1613C38.7096 19.2718 39.433 18.5484 40.3225 18.5484Z" fill="#F34970"/>
</g>
<defs>
<clipPath id="clip0">
<rect width="50" height="50" fill="white"/>
</clipPath>
</defs>
</svg>
