<svg width="50" height="50" viewBox="0 0 50 50" fill="none" xmlns="http://www.w3.org/2000/svg">
<g clip-path="url(#clip0)">
<path d="M43.5484 24.1935C43.4362 24.1935 43.3235 24.2112 43.2105 24.2175C42.1619 20.4876 38.738 17.7418 34.6774 17.7418C32.9499 17.7418 31.2661 18.2498 29.8289 19.1901C28.1321 14.9622 23.9766 12.0967 19.3548 12.0967C13.5419 12.0967 8.72409 16.5038 8.13697 22.2226C5.95821 23.0775 4.35476 25.0798 4.07833 27.4854C1.77081 27.8516 0 29.8492 0 32.258C0 34.9266 2.1701 37.0967 4.83871 37.0967H43.5484C47.1058 37.0967 50 34.2024 50 30.6451C50 27.0877 47.1058 24.1935 43.5484 24.1935ZM43.5484 35.4838H4.83871C3.05963 35.4838 1.6129 34.037 1.6129 32.258C1.6129 30.4789 3.05963 29.0322 4.83871 29.0322C5.52348 29.0322 6.17676 29.2436 6.72726 29.6425L7.67428 28.3372C7.08323 27.9087 6.41302 27.6315 5.7058 27.5039C6.05548 25.1775 8.06137 23.387 10.4839 23.387C13.1525 23.387 15.3226 25.5571 15.3226 28.2257H16.9355C16.9355 24.6683 14.0412 21.7741 10.4839 21.7741C10.2555 21.7741 10.0314 21.7871 9.80894 21.8095C10.5646 17.1917 14.5693 13.7096 19.3548 13.7096C23.6466 13.7096 27.4694 16.5936 28.6515 20.7215L28.9984 21.932L29.9533 21.1114C31.2693 19.9781 32.9476 19.3547 34.6774 19.3547C38.679 19.3547 41.9355 22.6113 41.9355 26.6128C41.9355 27.4271 41.8016 28.2265 41.5378 28.9885L43.0621 29.5161C43.3846 28.5837 43.5484 27.6071 43.5484 26.6128C43.5484 26.3419 43.5315 26.0741 43.5082 25.8095C43.5208 25.8087 43.5346 25.8064 43.5484 25.8064C46.217 25.8064 48.3871 27.9765 48.3871 30.6451C48.3871 33.3137 46.217 35.4838 43.5484 35.4838Z" fill="white"/>
<path d="M15.4825 45.1647C14.6248 43.677 13.0355 42.7422 11.2903 42.7422C9.54511 42.7422 7.95583 43.677 7.09819 45.1647C5.22264 45.2383 3.67077 46.5996 3.30732 48.3873H0V50.0003H4.83871V49.1938C4.83871 47.8601 5.92435 46.7744 7.25806 46.7744C7.32501 46.7744 7.39037 46.7843 7.48645 46.7961L8.08696 46.869L8.3252 46.3133C8.83474 45.1237 9.99835 44.3551 11.2903 44.3551C12.5823 44.3551 13.7459 45.1237 14.2555 46.3133L14.524 46.8662L15.1257 46.7922C15.1903 46.7843 15.2556 46.7744 15.3226 46.7744C16.6563 46.7744 17.7419 47.8601 17.7419 49.1938V50.0003H22.5806V48.3873H19.2733C18.9099 46.5996 17.358 45.2383 15.4825 45.1647Z" fill="white"/>
<path d="M46.6928 5.64516C46.3281 3.85742 44.7774 2.49614 42.9007 2.4225C42.0442 0.934822 40.455 0 38.7098 0C36.9645 0 35.3753 0.934822 34.5176 2.4225C32.6421 2.49614 31.0902 3.85742 30.7268 5.64516H27.4194V7.25806H32.2581V6.45161C32.2581 5.1179 33.3438 4.03226 34.6775 4.03226C34.7444 4.03226 34.8098 4.0421 34.9059 4.05392L35.5064 4.12676L35.7446 3.57115C36.2542 2.38155 37.4178 1.6129 38.7098 1.6129C40.0017 1.6129 41.1653 2.38155 41.6749 3.57115L41.9434 4.12401L42.5451 4.04998C42.6097 4.0421 42.6751 4.03226 42.742 4.03226C44.0757 4.03226 45.1614 5.1179 45.1614 6.45161V7.25806H50.0001V5.64516H46.6928Z" fill="white"/>
</g>
<defs>
<clipPath id="clip0">
<rect width="50" height="50" fill="white"/>
</clipPath>
</defs>
</svg>
