<svg width="12" height="12" viewBox="0 0 12 12" fill="none" xmlns="http://www.w3.org/2000/svg">
<g clip-path="url(#clip0)">
<rect x="-4" y="-4" width="20" height="20" rx="4" fill="#F34970"/>
<path d="M8.82811 1.17185C8.04693 0.390536 7.10414 0 5.99998 0C4.89577 0 3.95309 0.390618 3.17185 1.17185C2.39065 1.95306 2 2.89577 2 3.99998C2 4.56775 2.08592 5.03384 2.25774 5.39843L5.10932 11.4454C5.18747 11.6172 5.30861 11.7526 5.47265 11.8515C5.63673 11.9504 5.81248 12 6.00004 12C6.18753 12 6.36337 11.9504 6.52742 11.8515C6.69149 11.7526 6.81509 11.6172 6.89844 11.4454L9.74203 5.39843C9.91393 5.03384 9.99991 4.56773 9.99991 3.99998C10 2.89577 9.60948 1.95317 8.82811 1.17185ZM7.41398 5.41406C7.02341 5.80459 6.5521 5.99995 5.99998 5.99995C5.44786 5.99995 4.97655 5.80459 4.58588 5.41406C4.19526 5.02339 3.99991 4.55207 3.99991 3.99995C3.99991 3.44789 4.19526 2.97649 4.58588 2.58593C4.97655 2.19531 5.44794 1.99996 5.99998 1.99996C6.5521 1.99996 7.02341 2.19531 7.41398 2.58593C7.80457 2.97647 7.99992 3.44789 7.99992 3.99995C7.99992 4.55202 7.80459 5.0233 7.41398 5.41406Z" fill="white"/>
</g>
<defs>
<clipPath id="clip0">
<rect width="12" height="12" transform="matrix(-1 0 0 1 12 0)" fill="white"/>
</clipPath>
</defs>
</svg>
