<svg width="20" height="20" viewBox="0 0 20 20" fill="none" xmlns="http://www.w3.org/2000/svg">
<g clip-path="url(#clip0)">
<path d="M18.9005 1.10016C18.1673 0.366765 17.2839 0 16.251 0H3.75095C2.71806 0 1.83467 0.366765 1.10114 1.10016C0.367742 1.83369 0.000976562 2.71704 0.000976562 3.74997V16.2499C0.000976562 17.2828 0.367742 18.1662 1.10114 18.8997C1.83467 19.6333 2.71806 20 3.75095 20H16.2509C17.2838 20 18.1672 19.6333 18.9004 18.8997C19.6339 18.1662 20.0007 17.2828 20.0007 16.2499V3.74997C20.0007 2.71704 19.6339 1.83355 18.9005 1.10016ZM16.3808 15.1811C16.1985 15.5804 15.7883 15.9277 15.1504 16.223C14.5124 16.5183 13.9458 16.666 13.4509 16.666C13.312 16.666 13.1644 16.6553 13.0082 16.6335C12.8519 16.6117 12.7198 16.5901 12.6113 16.5684C12.5028 16.5467 12.3594 16.5077 12.1816 16.4512C12.0035 16.3949 11.8754 16.3514 11.7975 16.3211C11.7191 16.2908 11.576 16.2365 11.3678 16.1584C11.1595 16.0801 11.0291 16.0323 10.9774 16.0153C9.55376 15.4942 8.1625 14.5546 6.80407 13.1962C5.44564 11.8375 4.50592 10.4465 3.98505 9.02315C3.96781 8.97102 3.92006 8.84077 3.84185 8.63253C3.76377 8.42434 3.70936 8.281 3.67899 8.20296C3.6488 8.12484 3.60533 7.99678 3.54887 7.81896C3.49246 7.64096 3.45351 7.49785 3.43176 7.38921C3.40996 7.28085 3.38843 7.14855 3.36668 6.99225C3.34497 6.83596 3.33416 6.6882 3.33416 6.54942C3.33416 6.05459 3.48179 5.48821 3.777 4.85018C4.07216 4.21224 4.41931 3.8021 4.81869 3.61977C5.27877 3.42872 5.71713 3.33322 6.13384 3.33322C6.2292 3.33322 6.29875 3.34198 6.34203 3.35931C6.38549 3.37687 6.45714 3.45481 6.55702 3.59372C6.6569 3.73264 6.76535 3.90836 6.88251 4.12107C6.99972 4.33382 7.11474 4.54001 7.22757 4.73958C7.3404 4.9392 7.44894 5.13658 7.55315 5.33205C7.65732 5.5272 7.7224 5.65107 7.74839 5.70297C7.77443 5.74661 7.83089 5.82893 7.91764 5.95056C8.00438 6.07201 8.06964 6.18037 8.11297 6.27596C8.15629 6.37146 8.17805 6.46263 8.17805 6.54942C8.17805 6.67981 8.08898 6.83815 7.91107 7.02464C7.73307 7.2113 7.53774 7.38283 7.32503 7.53912C7.11232 7.69541 6.91708 7.86256 6.73912 8.04051C6.56131 8.21833 6.47224 8.36373 6.47224 8.4766C6.47224 8.53739 6.48742 8.60895 6.51784 8.69141C6.54822 8.77404 6.57645 8.84131 6.60249 8.8933C6.62853 8.94534 6.66985 9.01918 6.72617 9.11477C6.78259 9.21036 6.81957 9.27106 6.83681 9.29715C7.31417 10.1565 7.86332 10.8966 8.48384 11.5173C9.10463 12.1381 9.84455 12.687 10.704 13.1645C10.7299 13.182 10.7908 13.2188 10.8867 13.2753C10.982 13.3315 11.056 13.3727 11.108 13.3987C11.1601 13.4248 11.2272 13.4531 11.3098 13.4832C11.3924 13.5135 11.464 13.5288 11.525 13.5288C11.6635 13.5288 11.8545 13.3857 12.0978 13.0992C12.3408 12.8126 12.5884 12.5283 12.8401 12.2462C13.0917 11.9643 13.2955 11.8232 13.4521 11.8232C13.5388 11.8232 13.6298 11.8448 13.7256 11.8882C13.8212 11.9315 13.9295 11.9968 14.0509 12.0836C14.1726 12.1707 14.255 12.2268 14.2985 12.2533L14.9883 12.6305C15.4484 12.8736 15.8325 13.0884 16.1407 13.2751C16.449 13.4617 16.6161 13.5897 16.6422 13.659C16.6595 13.7024 16.6679 13.772 16.6679 13.8675C16.6676 14.2838 16.5721 14.7222 16.3808 15.1811Z" fill="#F34970"/>
</g>
<defs>
<clipPath id="clip0">
<rect width="20" height="20" fill="white"/>
</clipPath>
</defs>
</svg>
