<svg width="50" height="50" viewBox="0 0 50 50" fill="none" xmlns="http://www.w3.org/2000/svg">
<path d="M50 11.2903C50 5.06452 44.9355 0 38.7097 0H11.2903C5.06452 0 0 5.06452 0 11.2903C0 17.5161 5.06452 22.5806 11.2903 22.5806H13.5065C10.5403 25.5831 8.87097 29.5919 8.87097 33.871C8.87097 42.7645 16.1065 50 25 50C33.8935 50 41.129 42.7645 41.129 33.871C41.129 29.5919 39.4597 25.5831 36.4935 22.5806H38.7097C44.9355 22.5806 50 17.5161 50 11.2903ZM32.2581 46.4226C30.1202 47.6645 27.6452 48.3871 25 48.3871C22.3548 48.3871 19.8798 47.6645 17.7419 46.4226V44.3548C17.7419 40.3532 20.9976 37.0968 25 37.0968C29.0024 37.0968 32.2581 40.3532 32.2581 44.3548V46.4226ZM39.5161 33.871C39.5161 38.5331 37.2976 42.6774 33.871 45.3355V44.3548C33.871 39.4637 29.8911 35.4839 25 35.4839C20.1089 35.4839 16.129 39.4637 16.129 44.3548V45.3355C12.7024 42.6774 10.4839 38.5331 10.4839 33.871C10.4839 29.4556 12.4589 25.3581 15.9073 22.5806H20.4484C18.8 23.9121 17.7419 25.9468 17.7419 28.2258C17.7419 32.2274 20.9976 35.4839 25 35.4839C29.0024 35.4839 32.2581 32.2274 32.2581 28.2258C32.2581 25.9468 31.2 23.9121 29.5516 22.5806H34.0927C37.5411 25.3581 39.5161 29.4556 39.5161 33.871ZM25 22.5806C28.1121 22.5806 30.6452 25.1129 30.6452 28.2258C30.6452 31.3387 28.1121 33.871 25 33.871C21.8879 33.871 19.3548 31.3387 19.3548 28.2258C19.3548 25.1129 21.8879 22.5806 25 22.5806ZM11.2903 20.9677C5.95403 20.9677 1.6129 16.6266 1.6129 11.2903C1.6129 5.95403 5.95403 1.6129 11.2903 1.6129H38.7097C44.046 1.6129 48.3871 5.95403 48.3871 11.2903C48.3871 16.6266 44.046 20.9677 38.7097 20.9677H11.2903Z" fill="white"/>
<path d="M39.516 15.1088L44.0047 17.4693L43.1475 12.4701L46.7805 8.92976L41.7604 8.20073L39.516 3.65234L37.2717 8.20073L32.2579 8.92896L27.2442 8.20073L24.9999 3.65234L22.7555 8.20073L17.7418 8.92896L12.7281 8.20073L10.4838 3.65234L8.2394 8.20073L3.21924 8.92976L6.8523 12.4701L5.99504 17.4693L10.4838 15.1088L14.9725 17.4693L14.1152 12.4701L17.7418 8.93622L21.3684 12.4709L20.5112 17.4701L24.9999 15.1088L29.4886 17.4693L28.6313 12.4701L32.2579 8.93622L35.8846 12.4709L35.0273 17.4701L39.516 15.1088ZM12.3821 11.9072L12.8305 14.5209L10.4838 13.287L8.13698 14.5209L8.58537 11.9072L6.68617 10.0564L9.31037 9.67492L10.4838 7.29751L11.6571 9.67492L14.2813 10.0564L12.3821 11.9072ZM26.8991 11.9072L27.3475 14.5209L24.9999 13.287L22.6531 14.5209L23.1015 11.9072L21.2023 10.0564L23.8265 9.67492L24.9999 7.29751L26.1733 9.67492L28.7975 10.0564L26.8991 11.9072ZM35.7192 10.0564L38.3426 9.67492L39.516 7.29751L40.6894 9.67492L43.3136 10.0564L41.4152 11.9072L41.8636 14.5209L39.516 13.287L37.1692 14.5209L37.6176 11.9072L35.7192 10.0564Z" fill="white"/>
</svg>
