<svg width="26" height="26" viewBox="0 0 26 26" fill="none" xmlns="http://www.w3.org/2000/svg">
<path d="M25.3804 25.1689L18.0864 17.5834C19.9468 15.7175 21.0994 13.1453 21.0994 10.3085C21.0994 4.6241 16.4753 0 10.7909 0C5.10652 0 0.482422 4.6241 0.482422 10.3085C0.482422 15.9929 5.10652 20.617 10.7909 20.617C13.2861 20.617 15.576 19.7251 17.3609 18.2451L24.6725 25.8493C24.7688 25.9499 24.8974 26 25.0265 26C25.1492 26 25.2714 25.9543 25.3666 25.863C25.562 25.675 25.5679 25.3643 25.3804 25.1689ZM10.7909 19.6352C5.64796 19.6352 1.46418 15.4515 1.46418 10.3085C1.46418 5.16554 5.64796 0.981762 10.7909 0.981762C15.9339 0.981762 20.1177 5.16554 20.1177 10.3085C20.1177 15.4515 15.9334 19.6352 10.7909 19.6352Z" fill="black"/>
</svg>
